<svg width="100%" height="100%" viewBox="0 0 408 104" fill="none" xmlns="http://www.w3.org/2000/svg"><path d="M18.6371 24.0212V69.9927H0.414158V18.223C0.414158 6.62653 12.5628 1.24247 18.6371 0H68.7503V19.4654H23.1929C19.2169 19.4654 18.4991 22.5026 18.6371 24.0212Z" fill="white"></path><path d="M24.43 70.0036V50.1241H49.6937C49.6937 50.1241 51.3503 46.3966 49.6937 43.0834H24.43V27.7595C24.43 27.7595 24.3387 27.143 24.8571 26.1061C25.2713 25.2778 26.5008 24.8604 26.5008 24.8604H68.7517V53.4373C68.7517 64.7416 58.1149 68.8992 52.5928 70.0036H24.43Z" fill="white"></path><g clip-path="url(#clip0_286_50887)"><path d="M102.697 42.6002V37.1119H125.014C125.014 40.4507 124.51 43.6293 123.503 46.6479C122.496 49.6207 121.008 52.2734 119.04 54.6059C117.071 56.9385 114.645 58.7908 111.761 60.1629C108.923 61.4892 105.673 62.1524 102.011 62.1524C98.5314 62.1524 95.304 61.5578 92.3285 60.3687C89.353 59.1338 86.7665 57.4187 84.5691 55.2234C82.3718 52.9823 80.6551 50.3525 79.4191 47.3339C78.2289 44.3153 77.6338 41.0223 77.6338 37.4549C77.6338 33.8875 78.2289 30.5945 79.4191 27.5759C80.6551 24.5574 82.3718 21.9504 84.5691 19.7551C86.7665 17.514 89.353 15.7989 92.3285 14.6098C95.304 13.3749 98.5314 12.7575 102.011 12.7575C104.986 12.7575 107.71 13.1462 110.182 13.9237C112.7 14.7012 114.943 15.8446 116.911 17.3539C118.925 18.8632 120.619 20.7384 121.993 22.9795L117.873 26.7527C116.362 24.1915 114.256 22.202 111.555 20.7841C108.854 19.3206 105.673 18.5888 102.011 18.5888C98.623 18.5888 95.5558 19.3892 92.8092 20.9899C90.0625 22.5907 87.8652 24.8089 86.2171 27.6445C84.6149 30.4345 83.8138 33.7045 83.8138 37.4549C83.8138 41.1595 84.6149 44.4297 86.2171 47.2653C87.8652 50.1009 90.0625 52.3192 92.8092 53.9199C95.5558 55.5206 98.623 56.321 102.011 56.321C104.391 56.321 106.52 55.978 108.397 55.292C110.319 54.5602 111.967 53.5541 113.341 52.2734C114.714 50.9928 115.835 49.5292 116.705 47.8827C117.621 46.2362 118.285 44.4754 118.697 42.6002H102.697ZM130.382 45.6874C130.382 42.4859 131.091 39.6503 132.51 37.1805C133.975 34.7108 135.944 32.767 138.416 31.3492C140.888 29.9313 143.657 29.2224 146.724 29.2224C149.837 29.2224 152.607 29.9313 155.033 31.3492C157.505 32.767 159.45 34.7108 160.87 37.1805C162.334 39.6503 163.067 42.4859 163.067 45.6874C163.067 48.8432 162.334 51.6788 160.87 54.1943C159.45 56.6641 157.505 58.6078 155.033 60.0257C152.607 61.4435 149.837 62.1524 146.724 62.1524C143.657 62.1524 140.888 61.4435 138.416 60.0257C135.944 58.6078 133.975 56.6641 132.51 54.1943C131.091 51.6788 130.382 48.8432 130.382 45.6874ZM135.944 45.6874C135.944 47.8827 136.401 49.8265 137.317 51.5188C138.278 53.211 139.56 54.5602 141.162 55.5664C142.81 56.5269 144.664 57.0071 146.724 57.0071C148.784 57.0071 150.615 56.5269 152.218 55.5664C153.866 54.5602 155.147 53.211 156.063 51.5188C157.024 49.8265 157.505 47.8827 157.505 45.6874C157.505 43.4921 157.024 41.5483 156.063 39.8561C155.147 38.1181 153.866 36.7689 152.218 35.8084C150.615 34.848 148.784 34.3677 146.724 34.3677C144.664 34.3677 142.81 34.848 141.162 35.8084C139.56 36.7689 138.278 38.1181 137.317 39.8561C136.401 41.5483 135.944 43.4921 135.944 45.6874ZM167.714 45.6874C167.714 42.4859 168.424 39.6503 169.843 37.1805C171.308 34.7108 173.276 32.767 175.748 31.3492C178.22 29.9313 180.99 29.2224 184.057 29.2224C187.169 29.2224 189.94 29.9313 192.365 31.3492C194.837 32.767 196.783 34.7108 198.202 37.1805C199.667 39.6503 200.399 42.4859 200.399 45.6874C200.399 48.8432 199.667 51.6788 198.202 54.1943C196.783 56.6641 194.837 58.6078 192.365 60.0257C189.94 61.4435 187.169 62.1524 184.057 62.1524C180.99 62.1524 178.22 61.4435 175.748 60.0257C173.276 58.6078 171.308 56.6641 169.843 54.1943C168.424 51.6788 167.714 48.8432 167.714 45.6874ZM173.276 45.6874C173.276 47.8827 173.734 49.8265 174.649 51.5188C175.611 53.211 176.892 54.5602 178.495 55.5664C180.143 56.5269 181.997 57.0071 184.057 57.0071C186.117 57.0071 187.948 56.5269 189.55 55.5664C191.198 54.5602 192.48 53.211 193.395 51.5188C194.357 49.8265 194.837 47.8827 194.837 45.6874C194.837 43.4921 194.357 41.5483 193.395 39.8561C192.48 38.1181 191.198 36.7689 189.55 35.8084C187.948 34.848 186.117 34.3677 184.057 34.3677C181.997 34.3677 180.143 34.848 178.495 35.8084C176.892 36.7689 175.611 38.1181 174.649 39.8561C173.734 41.5483 173.276 43.4921 173.276 45.6874ZM231.483 7.95517H236.976V61.4664H231.483V7.95517ZM205.046 45.6874C205.046 42.2572 205.757 39.3301 207.175 36.9061C208.594 34.4363 210.495 32.5383 212.874 31.212C215.255 29.8856 217.864 29.2224 220.702 29.2224C223.358 29.2224 225.67 29.8856 227.638 31.212C229.606 32.5383 231.14 34.4363 232.238 36.9061C233.383 39.3301 233.955 42.2572 233.955 45.6874C233.955 49.0718 233.383 51.999 232.238 54.4687C231.14 56.9385 229.606 58.8366 227.638 60.1629C225.67 61.4892 223.358 62.1524 220.702 62.1524C217.864 62.1524 215.255 61.4892 212.874 60.1629C210.495 58.8366 208.594 56.9385 207.175 54.4687C205.757 51.999 205.046 49.0718 205.046 45.6874ZM210.608 45.6874C210.608 48.1114 211.089 50.1695 212.05 51.8618C213.058 53.5541 214.385 54.8346 216.033 55.7036C217.681 56.5726 219.466 57.0071 221.389 57.0071C222.992 57.0071 224.571 56.5726 226.127 55.7036C227.684 54.8346 228.966 53.5541 229.972 51.8618C230.98 50.1695 231.483 48.1114 231.483 45.6874C231.483 43.2634 230.98 41.2053 229.972 39.5131C228.966 37.8208 227.684 36.5402 226.127 35.6712C224.571 34.8022 222.992 34.3677 221.389 34.3677C219.466 34.3677 217.681 34.8022 216.033 35.6712C214.385 36.5402 213.058 37.8208 212.05 39.5131C211.089 41.2053 210.608 43.2634 210.608 45.6874ZM250.373 18.9318V13.4435H271.866V18.9318H250.373ZM250.373 38.141V32.6526H271.179V38.141H250.373ZM247.145 13.4435H252.982V61.4664H247.145V13.4435ZM280.983 16.8737C280.983 15.8218 281.349 14.9299 282.082 14.1981C282.86 13.4664 283.752 13.1005 284.76 13.1005C285.812 13.1005 286.705 13.4664 287.438 14.1981C288.17 14.9299 288.537 15.8218 288.537 16.8737C288.537 17.8799 288.17 18.7718 287.438 19.5493C286.705 20.2811 285.812 20.6469 284.76 20.6469C283.752 20.6469 282.86 20.2811 282.082 19.5493C281.349 18.7718 280.983 17.8799 280.983 16.8737ZM282.013 29.9085H287.507V61.4664H282.013V29.9085ZM304.161 29.9085V61.4664H298.668V29.9085H304.161ZM313.706 35.9456C312.973 35.3968 312.309 35.008 311.715 34.7794C311.119 34.505 310.364 34.3677 309.449 34.3677C308.075 34.3677 306.999 34.7108 306.221 35.3968C305.443 36.0828 304.893 37.0205 304.573 38.2096C304.299 39.3987 304.161 40.7479 304.161 42.2572H301.689C301.689 39.7417 302.124 37.5235 302.994 35.6026C303.909 33.6359 305.077 32.081 306.496 30.9375C307.915 29.7941 309.357 29.2224 310.822 29.2224C311.966 29.2224 313.02 29.3825 313.981 29.7027C314.987 29.9771 315.904 30.5487 316.728 31.4178L313.706 35.9456ZM365.313 41.5712V61.4664H359.819V42.2572C359.819 39.5588 359.316 37.5693 358.309 36.2887C357.347 35.008 355.837 34.3677 353.776 34.3677C352.266 34.3677 350.961 34.6879 349.862 35.3282C348.764 35.9228 347.917 36.8147 347.322 38.0038C346.726 39.1929 346.429 40.6107 346.429 42.2572V61.4664H340.936V42.2572C340.936 39.5588 340.433 37.5693 339.425 36.2887C338.464 35.008 336.953 34.3677 334.893 34.3677C333.382 34.3677 332.078 34.6879 330.979 35.3282C329.88 35.9228 329.034 36.8147 328.438 38.0038C327.843 39.1929 327.546 40.6107 327.546 42.2572V61.4664H322.052V29.9085H327.546V34.5049C328.507 32.7212 329.697 31.3949 331.116 30.5259C332.581 29.6569 334.298 29.2224 336.266 29.2224C338.464 29.2224 340.34 29.7484 341.897 30.8003C343.499 31.8066 344.666 33.2472 345.399 35.1224C346.498 33.1557 347.871 31.6922 349.519 30.7317C351.167 29.7255 353.044 29.2224 355.15 29.2224C357.301 29.2224 359.133 29.7027 360.643 30.6631C362.154 31.6236 363.299 33.0414 364.077 34.9166C364.901 36.7461 365.313 38.9642 365.313 41.5712ZM376.783 51.7932C377.424 52.7536 378.156 53.6455 378.98 54.4687C379.804 55.292 380.743 55.9552 381.796 56.4583C382.894 56.9157 384.084 57.1443 385.366 57.1443C386.923 57.1443 388.136 56.8013 389.006 56.1152C389.921 55.3834 390.379 54.4001 390.379 53.1653C390.379 52.0676 390.013 51.1529 389.28 50.4211C388.594 49.6436 387.701 49.0032 386.602 48.5002C385.504 47.9514 384.336 47.4483 383.1 46.9909C381.727 46.4421 380.331 45.8018 378.912 45.07C377.538 44.2925 376.371 43.3091 375.41 42.12C374.495 40.8851 374.036 39.353 374.036 37.5235C374.036 35.6484 374.517 34.0933 375.478 32.8585C376.486 31.6236 377.767 30.7089 379.324 30.1143C380.926 29.5197 382.574 29.2224 384.268 29.2224C385.962 29.2224 387.541 29.4969 389.006 30.0457C390.516 30.5945 391.844 31.3263 392.988 32.241C394.133 33.1557 395.026 34.2077 395.667 35.3968L391.272 38.2096C390.402 37.0205 389.303 36.0371 387.976 35.2596C386.694 34.4821 385.229 34.0933 383.581 34.0933C382.436 34.0933 381.452 34.3449 380.628 34.848C379.804 35.351 379.392 36.1286 379.392 37.1805C379.392 38.0038 379.713 38.7356 380.354 39.3758C380.994 40.0161 381.818 40.5879 382.826 41.0909C383.833 41.594 384.886 42.0742 385.984 42.5316C387.816 43.2634 389.487 44.0638 390.997 44.9328C392.508 45.756 393.698 46.7622 394.568 47.9513C395.483 49.1404 395.941 50.6727 395.941 52.5478C395.941 55.292 394.934 57.5788 392.92 59.4082C390.951 61.2377 388.342 62.1524 385.092 62.1524C382.986 62.1524 381.087 61.7865 379.392 61.0547C377.698 60.2773 376.256 59.2939 375.066 58.1048C373.922 56.9156 373.053 55.7036 372.457 54.4687L376.783 51.7932Z" fill="white"></path></g><path d="M9.824 86.848V98H8.368V92.944H2.688V98H1.232V86.848H2.688V91.744H8.368V86.848H9.824ZM20.3101 93.28C20.3101 93.5573 20.2941 93.8507 20.2621 94.16H13.2541C13.3075 95.024 13.6008 95.7013 14.1341 96.192C14.6781 96.672 15.3341 96.912 16.1021 96.912C16.7315 96.912 17.2541 96.768 17.6701 96.48C18.0968 96.1813 18.3955 95.7867 18.5661 95.296H20.1341C19.8995 96.1387 19.4301 96.8267 18.7261 97.36C18.0221 97.8827 17.1475 98.144 16.1021 98.144C15.2701 98.144 14.5235 97.9573 13.8621 97.584C13.2115 97.2107 12.6995 96.6827 12.3261 96C11.9528 95.3067 11.7661 94.5067 11.7661 93.6C11.7661 92.6933 11.9475 91.8987 12.3101 91.216C12.6728 90.5333 13.1795 90.0107 13.8301 89.648C14.4915 89.2747 15.2488 89.088 16.1021 89.088C16.9341 89.088 17.6701 89.2693 18.3101 89.632C18.9501 89.9947 19.4408 90.496 19.7821 91.136C20.1341 91.7653 20.3101 92.48 20.3101 93.28ZM18.8061 92.976C18.8061 92.4213 18.6835 91.9467 18.4381 91.552C18.1928 91.1467 17.8568 90.8427 17.4301 90.64C17.0141 90.4267 16.5501 90.32 16.0381 90.32C15.3021 90.32 14.6728 90.5547 14.1501 91.024C13.6381 91.4933 13.3448 92.144 13.2701 92.976H18.8061ZM23.688 86.16V98H22.232V86.16H23.688ZM27.6255 90.848C27.9135 90.3467 28.3402 89.9307 28.9055 89.6C29.4815 89.2587 30.1482 89.088 30.9055 89.088C31.6842 89.088 32.3882 89.2747 33.0175 89.648C33.6575 90.0213 34.1588 90.5493 34.5215 91.232C34.8842 91.904 35.0655 92.688 35.0655 93.584C35.0655 94.4693 34.8842 95.2587 34.5215 95.952C34.1588 96.6453 33.6575 97.184 33.0175 97.568C32.3882 97.952 31.6842 98.144 30.9055 98.144C30.1588 98.144 29.4975 97.9787 28.9215 97.648C28.3562 97.3067 27.9242 96.8853 27.6255 96.384V102.16H26.1695V89.232H27.6255V90.848ZM33.5775 93.584C33.5775 92.9227 33.4442 92.3467 33.1775 91.856C32.9108 91.3653 32.5482 90.992 32.0895 90.736C31.6415 90.48 31.1455 90.352 30.6015 90.352C30.0682 90.352 29.5722 90.4853 29.1135 90.752C28.6655 91.008 28.3028 91.3867 28.0255 91.888C27.7588 92.3787 27.6255 92.9493 27.6255 93.6C27.6255 94.2613 27.7588 94.8427 28.0255 95.344C28.3028 95.8347 28.6655 96.2133 29.1135 96.48C29.5722 96.736 30.0682 96.864 30.6015 96.864C31.1455 96.864 31.6415 96.736 32.0895 96.48C32.5482 96.2133 32.9108 95.8347 33.1775 95.344C33.4442 94.8427 33.5775 94.256 33.5775 93.584ZM37.734 87.808C37.4567 87.808 37.222 87.712 37.03 87.52C36.838 87.328 36.742 87.0933 36.742 86.816C36.742 86.5387 36.838 86.304 37.03 86.112C37.222 85.92 37.4567 85.824 37.734 85.824C38.0007 85.824 38.2247 85.92 38.406 86.112C38.598 86.304 38.694 86.5387 38.694 86.816C38.694 87.0933 38.598 87.328 38.406 87.52C38.2247 87.712 38.0007 87.808 37.734 87.808ZM38.438 89.232V98H36.982V89.232H38.438ZM45.1915 89.072C46.2582 89.072 47.1222 89.3973 47.7835 90.048C48.4448 90.688 48.7755 91.616 48.7755 92.832V98H47.3355V93.04C47.3355 92.1653 47.1168 91.4987 46.6795 91.04C46.2422 90.5707 45.6448 90.336 44.8875 90.336C44.1195 90.336 43.5062 90.576 43.0475 91.056C42.5995 91.536 42.3755 92.2347 42.3755 93.152V98H40.9195V89.232H42.3755V90.48C42.6635 90.032 43.0528 89.6853 43.5435 89.44C44.0448 89.1947 44.5942 89.072 45.1915 89.072ZM54.7699 89.088C55.5272 89.088 56.1885 89.2533 56.7539 89.584C57.3299 89.9147 57.7565 90.3307 58.0339 90.832V89.232H59.5059V98.192C59.5059 98.992 59.3352 99.7013 58.9939 100.32C58.6525 100.949 58.1619 101.44 57.5219 101.792C56.8925 102.144 56.1565 102.32 55.3139 102.32C54.1619 102.32 53.2019 102.048 52.4339 101.504C51.6659 100.96 51.2125 100.219 51.0739 99.28H52.5139C52.6739 99.8133 53.0045 100.24 53.5059 100.56C54.0072 100.891 54.6099 101.056 55.3139 101.056C56.1139 101.056 56.7645 100.805 57.2659 100.304C57.7779 99.8027 58.0339 99.0987 58.0339 98.192V96.352C57.7459 96.864 57.3192 97.2907 56.7539 97.632C56.1885 97.9733 55.5272 98.144 54.7699 98.144C53.9912 98.144 53.2819 97.952 52.6419 97.568C52.0125 97.184 51.5165 96.6453 51.1539 95.952C50.7912 95.2587 50.6099 94.4693 50.6099 93.584C50.6099 92.688 50.7912 91.904 51.1539 91.232C51.5165 90.5493 52.0125 90.0213 52.6419 89.648C53.2819 89.2747 53.9912 89.088 54.7699 89.088ZM58.0339 93.6C58.0339 92.9387 57.9005 92.3627 57.6339 91.872C57.3672 91.3813 57.0045 91.008 56.5459 90.752C56.0979 90.4853 55.6019 90.352 55.0579 90.352C54.5139 90.352 54.0179 90.48 53.5699 90.736C53.1219 90.992 52.7645 91.3653 52.4979 91.856C52.2312 92.3467 52.0979 92.9227 52.0979 93.584C52.0979 94.256 52.2312 94.8427 52.4979 95.344C52.7645 95.8347 53.1219 96.2133 53.5699 96.48C54.0179 96.736 54.5139 96.864 55.0579 96.864C55.6019 96.864 56.0979 96.736 56.5459 96.48C57.0045 96.2133 57.3672 95.8347 57.6339 95.344C57.9005 94.8427 58.0339 94.2613 58.0339 93.6ZM67.688 90.864C67.9867 90.3413 68.424 89.9147 69 89.584C69.576 89.2533 70.232 89.088 70.968 89.088C71.7573 89.088 72.4667 89.2747 73.096 89.648C73.7253 90.0213 74.2213 90.5493 74.584 91.232C74.9467 91.904 75.128 92.688 75.128 93.584C75.128 94.4693 74.9467 95.2587 74.584 95.952C74.2213 96.6453 73.72 97.184 73.08 97.568C72.4507 97.952 71.7467 98.144 70.968 98.144C70.2107 98.144 69.544 97.9787 68.968 97.648C68.4027 97.3173 67.976 96.896 67.688 96.384V98H66.232V86.16H67.688V90.864ZM73.64 93.584C73.64 92.9227 73.5067 92.3467 73.24 91.856C72.9733 91.3653 72.6107 90.992 72.152 90.736C71.704 90.48 71.208 90.352 70.664 90.352C70.1307 90.352 69.6347 90.4853 69.176 90.752C68.728 91.008 68.3653 91.3867 68.088 91.888C67.8213 92.3787 67.688 92.9493 67.688 93.6C67.688 94.2613 67.8213 94.8427 68.088 95.344C68.3653 95.8347 68.728 96.2133 69.176 96.48C69.6347 96.736 70.1307 96.864 70.664 96.864C71.208 96.864 71.704 96.736 72.152 96.48C72.6107 96.2133 72.9733 95.8347 73.24 95.344C73.5067 94.8427 73.64 94.256 73.64 93.584ZM84.8205 89.232V98H83.3645V96.704C83.0872 97.152 82.6978 97.504 82.1965 97.76C81.7058 98.0053 81.1618 98.128 80.5645 98.128C79.8818 98.128 79.2685 97.9893 78.7245 97.712C78.1805 97.424 77.7485 96.9973 77.4285 96.432C77.1192 95.8667 76.9645 95.1787 76.9645 94.368V89.232H78.4045V94.176C78.4045 95.04 78.6232 95.7067 79.0605 96.176C79.4978 96.6347 80.0952 96.864 80.8525 96.864C81.6312 96.864 82.2445 96.624 82.6925 96.144C83.1405 95.664 83.3645 94.9653 83.3645 94.048V89.232H84.8205ZM90.3829 98.144C89.7109 98.144 89.1082 98.032 88.5749 97.808C88.0415 97.5733 87.6202 97.2533 87.3109 96.848C87.0015 96.432 86.8309 95.9573 86.7989 95.424H88.3029C88.3455 95.8613 88.5482 96.2187 88.9109 96.496C89.2842 96.7733 89.7695 96.912 90.3669 96.912C90.9215 96.912 91.3589 96.7893 91.6789 96.544C91.9989 96.2987 92.1589 95.9893 92.1589 95.616C92.1589 95.232 91.9882 94.9493 91.6469 94.768C91.3055 94.576 90.7775 94.3893 90.0629 94.208C89.4122 94.0373 88.8789 93.8667 88.4629 93.696C88.0575 93.5147 87.7055 93.2533 87.4069 92.912C87.1189 92.56 86.9749 92.1013 86.9749 91.536C86.9749 91.088 87.1082 90.6773 87.3749 90.304C87.6415 89.9307 88.0202 89.6373 88.5109 89.424C89.0015 89.2 89.5615 89.088 90.1909 89.088C91.1615 89.088 91.9455 89.3333 92.5429 89.824C93.1402 90.3147 93.4602 90.9867 93.5029 91.84H92.0469C92.0149 91.3813 91.8282 91.0133 91.4869 90.736C91.1562 90.4587 90.7082 90.32 90.1429 90.32C89.6202 90.32 89.2042 90.432 88.8949 90.656C88.5855 90.88 88.4309 91.1733 88.4309 91.536C88.4309 91.824 88.5215 92.064 88.7029 92.256C88.8949 92.4373 89.1295 92.5867 89.4069 92.704C89.6949 92.8107 90.0895 92.9333 90.5909 93.072C91.2202 93.2427 91.7322 93.4133 92.1269 93.584C92.5215 93.744 92.8575 93.9893 93.1349 94.32C93.4229 94.6507 93.5722 95.0827 93.5829 95.616C93.5829 96.096 93.4495 96.528 93.1829 96.912C92.9162 97.296 92.5375 97.6 92.0469 97.824C91.5669 98.0373 91.0122 98.144 90.3829 98.144ZM96.3903 87.808C96.1129 87.808 95.8783 87.712 95.6863 87.52C95.4943 87.328 95.3983 87.0933 95.3983 86.816C95.3983 86.5387 95.4943 86.304 95.6863 86.112C95.8783 85.92 96.1129 85.824 96.3903 85.824C96.6569 85.824 96.8809 85.92 97.0623 86.112C97.2543 86.304 97.3503 86.5387 97.3503 86.816C97.3503 87.0933 97.2543 87.328 97.0623 87.52C96.8809 87.712 96.6569 87.808 96.3903 87.808ZM97.0943 89.232V98H95.6383V89.232H97.0943ZM103.848 89.072C104.914 89.072 105.778 89.3973 106.44 90.048C107.101 90.688 107.432 91.616 107.432 92.832V98H105.992V93.04C105.992 92.1653 105.773 91.4987 105.336 91.04C104.898 90.5707 104.301 90.336 103.544 90.336C102.776 90.336 102.162 90.576 101.704 91.056C101.256 91.536 101.032 92.2347 101.032 93.152V98H99.5758V89.232H101.032V90.48C101.32 90.032 101.709 89.6853 102.2 89.44C102.701 89.1947 103.25 89.072 103.848 89.072ZM117.81 93.28C117.81 93.5573 117.794 93.8507 117.762 94.16H110.754C110.807 95.024 111.101 95.7013 111.634 96.192C112.178 96.672 112.834 96.912 113.602 96.912C114.231 96.912 114.754 96.768 115.17 96.48C115.597 96.1813 115.895 95.7867 116.066 95.296H117.634C117.399 96.1387 116.93 96.8267 116.226 97.36C115.522 97.8827 114.647 98.144 113.602 98.144C112.77 98.144 112.023 97.9573 111.362 97.584C110.711 97.2107 110.199 96.6827 109.826 96C109.453 95.3067 109.266 94.5067 109.266 93.6C109.266 92.6933 109.447 91.8987 109.81 91.216C110.173 90.5333 110.679 90.0107 111.33 89.648C111.991 89.2747 112.749 89.088 113.602 89.088C114.434 89.088 115.17 89.2693 115.81 89.632C116.45 89.9947 116.941 90.496 117.282 91.136C117.634 91.7653 117.81 92.48 117.81 93.28ZM116.306 92.976C116.306 92.4213 116.183 91.9467 115.938 91.552C115.693 91.1467 115.357 90.8427 114.93 90.64C114.514 90.4267 114.05 90.32 113.538 90.32C112.802 90.32 112.173 90.5547 111.65 91.024C111.138 91.4933 110.845 92.144 110.77 92.976H116.306ZM122.836 98.144C122.164 98.144 121.561 98.032 121.028 97.808C120.495 97.5733 120.073 97.2533 119.764 96.848C119.455 96.432 119.284 95.9573 119.252 95.424H120.756C120.799 95.8613 121.001 96.2187 121.364 96.496C121.737 96.7733 122.223 96.912 122.82 96.912C123.375 96.912 123.812 96.7893 124.132 96.544C124.452 96.2987 124.612 95.9893 124.612 95.616C124.612 95.232 124.441 94.9493 124.1 94.768C123.759 94.576 123.231 94.3893 122.516 94.208C121.865 94.0373 121.332 93.8667 120.916 93.696C120.511 93.5147 120.159 93.2533 119.86 92.912C119.572 92.56 119.428 92.1013 119.428 91.536C119.428 91.088 119.561 90.6773 119.828 90.304C120.095 89.9307 120.473 89.6373 120.964 89.424C121.455 89.2 122.015 89.088 122.644 89.088C123.615 89.088 124.399 89.3333 124.996 89.824C125.593 90.3147 125.913 90.9867 125.956 91.84H124.5C124.468 91.3813 124.281 91.0133 123.94 90.736C123.609 90.4587 123.161 90.32 122.596 90.32C122.073 90.32 121.657 90.432 121.348 90.656C121.039 90.88 120.884 91.1733 120.884 91.536C120.884 91.824 120.975 92.064 121.156 92.256C121.348 92.4373 121.583 92.5867 121.86 92.704C122.148 92.8107 122.543 92.9333 123.044 93.072C123.673 93.2427 124.185 93.4133 124.58 93.584C124.975 93.744 125.311 93.9893 125.588 94.32C125.876 94.6507 126.025 95.0827 126.036 95.616C126.036 96.096 125.903 96.528 125.636 96.912C125.369 97.296 124.991 97.6 124.5 97.824C124.02 98.0373 123.465 98.144 122.836 98.144ZM131.195 98.144C130.523 98.144 129.921 98.032 129.387 97.808C128.854 97.5733 128.433 97.2533 128.123 96.848C127.814 96.432 127.643 95.9573 127.611 95.424H129.115C129.158 95.8613 129.361 96.2187 129.723 96.496C130.097 96.7733 130.582 96.912 131.179 96.912C131.734 96.912 132.171 96.7893 132.491 96.544C132.811 96.2987 132.971 95.9893 132.971 95.616C132.971 95.232 132.801 94.9493 132.459 94.768C132.118 94.576 131.59 94.3893 130.875 94.208C130.225 94.0373 129.691 93.8667 129.275 93.696C128.87 93.5147 128.518 93.2533 128.219 92.912C127.931 92.56 127.787 92.1013 127.787 91.536C127.787 91.088 127.921 90.6773 128.187 90.304C128.454 89.9307 128.833 89.6373 129.323 89.424C129.814 89.2 130.374 89.088 131.003 89.088C131.974 89.088 132.758 89.3333 133.355 89.824C133.953 90.3147 134.273 90.9867 134.315 91.84H132.859C132.827 91.3813 132.641 91.0133 132.299 90.736C131.969 90.4587 131.521 90.32 130.955 90.32C130.433 90.32 130.017 90.432 129.707 90.656C129.398 90.88 129.243 91.1733 129.243 91.536C129.243 91.824 129.334 92.064 129.515 92.256C129.707 92.4373 129.942 92.5867 130.219 92.704C130.507 92.8107 130.902 92.9333 131.403 93.072C132.033 93.2427 132.545 93.4133 132.939 93.584C133.334 93.744 133.67 93.9893 133.947 94.32C134.235 94.6507 134.385 95.0827 134.395 95.616C134.395 96.096 134.262 96.528 133.995 96.912C133.729 97.296 133.35 97.6 132.859 97.824C132.379 98.0373 131.825 98.144 131.195 98.144ZM144.451 93.28C144.451 93.5573 144.435 93.8507 144.403 94.16H137.395C137.448 95.024 137.741 95.7013 138.275 96.192C138.819 96.672 139.475 96.912 140.243 96.912C140.872 96.912 141.395 96.768 141.811 96.48C142.237 96.1813 142.536 95.7867 142.707 95.296H144.275C144.04 96.1387 143.571 96.8267 142.867 97.36C142.163 97.8827 141.288 98.144 140.243 98.144C139.411 98.144 138.664 97.9573 138.003 97.584C137.352 97.2107 136.84 96.6827 136.467 96C136.093 95.3067 135.907 94.5067 135.907 93.6C135.907 92.6933 136.088 91.8987 136.451 91.216C136.813 90.5333 137.32 90.0107 137.971 89.648C138.632 89.2747 139.389 89.088 140.243 89.088C141.075 89.088 141.811 89.2693 142.451 89.632C143.091 89.9947 143.581 90.496 143.923 91.136C144.275 91.7653 144.451 92.48 144.451 93.28ZM142.947 92.976C142.947 92.4213 142.824 91.9467 142.579 91.552C142.333 91.1467 141.997 90.8427 141.571 90.64C141.155 90.4267 140.691 90.32 140.179 90.32C139.443 90.32 138.813 90.5547 138.291 91.024C137.779 91.4933 137.485 92.144 137.411 92.976H142.947ZM149.477 98.144C148.805 98.144 148.202 98.032 147.669 97.808C147.135 97.5733 146.714 97.2533 146.405 96.848C146.095 96.432 145.925 95.9573 145.893 95.424H147.397C147.439 95.8613 147.642 96.2187 148.005 96.496C148.378 96.7733 148.863 96.912 149.461 96.912C150.015 96.912 150.453 96.7893 150.773 96.544C151.093 96.2987 151.253 95.9893 151.253 95.616C151.253 95.232 151.082 94.9493 150.741 94.768C150.399 94.576 149.871 94.3893 149.157 94.208C148.506 94.0373 147.973 93.8667 147.557 93.696C147.151 93.5147 146.799 93.2533 146.501 92.912C146.213 92.56 146.069 92.1013 146.069 91.536C146.069 91.088 146.202 90.6773 146.469 90.304C146.735 89.9307 147.114 89.6373 147.605 89.424C148.095 89.2 148.655 89.088 149.285 89.088C150.255 89.088 151.039 89.3333 151.637 89.824C152.234 90.3147 152.554 90.9867 152.597 91.84H151.141C151.109 91.3813 150.922 91.0133 150.581 90.736C150.25 90.4587 149.802 90.32 149.237 90.32C148.714 90.32 148.298 90.432 147.989 90.656C147.679 90.88 147.525 91.1733 147.525 91.536C147.525 91.824 147.615 92.064 147.797 92.256C147.989 92.4373 148.223 92.5867 148.501 92.704C148.789 92.8107 149.183 92.9333 149.685 93.072C150.314 93.2427 150.826 93.4133 151.221 93.584C151.615 93.744 151.951 93.9893 152.229 94.32C152.517 94.6507 152.666 95.0827 152.677 95.616C152.677 96.096 152.543 96.528 152.277 96.912C152.01 97.296 151.631 97.6 151.141 97.824C150.661 98.0373 150.106 98.144 149.477 98.144ZM158.454 93.584C158.454 92.688 158.635 91.904 158.998 91.232C159.36 90.5493 159.856 90.0213 160.486 89.648C161.126 89.2747 161.835 89.088 162.614 89.088C163.382 89.088 164.048 89.2533 164.614 89.584C165.179 89.9147 165.6 90.3307 165.878 90.832V89.232H167.35V98H165.878V96.368C165.59 96.88 165.158 97.3067 164.582 97.648C164.016 97.9787 163.355 98.144 162.598 98.144C161.819 98.144 161.115 97.952 160.486 97.568C159.856 97.184 159.36 96.6453 158.998 95.952C158.635 95.2587 158.454 94.4693 158.454 93.584ZM165.878 93.6C165.878 92.9387 165.744 92.3627 165.478 91.872C165.211 91.3813 164.848 91.008 164.39 90.752C163.942 90.4853 163.446 90.352 162.902 90.352C162.358 90.352 161.862 90.48 161.414 90.736C160.966 90.992 160.608 91.3653 160.342 91.856C160.075 92.3467 159.942 92.9227 159.942 93.584C159.942 94.256 160.075 94.8427 160.342 95.344C160.608 95.8347 160.966 96.2133 161.414 96.48C161.862 96.736 162.358 96.864 162.902 96.864C163.446 96.864 163.942 96.736 164.39 96.48C164.848 96.2133 165.211 95.8347 165.478 95.344C165.744 94.8427 165.878 94.2613 165.878 93.6ZM169.266 93.6C169.266 92.6933 169.447 91.904 169.81 91.232C170.173 90.5493 170.674 90.0213 171.314 89.648C171.965 89.2747 172.706 89.088 173.538 89.088C174.615 89.088 175.501 89.3493 176.194 89.872C176.898 90.3947 177.362 91.12 177.586 92.048H176.018C175.869 91.5147 175.575 91.0933 175.138 90.784C174.711 90.4747 174.178 90.32 173.538 90.32C172.706 90.32 172.034 90.608 171.522 91.184C171.01 91.7493 170.754 92.5547 170.754 93.6C170.754 94.656 171.01 95.472 171.522 96.048C172.034 96.624 172.706 96.912 173.538 96.912C174.178 96.912 174.711 96.7627 175.138 96.464C175.565 96.1653 175.858 95.7387 176.018 95.184H177.586C177.351 96.08 176.882 96.8 176.178 97.344C175.474 97.8773 174.594 98.144 173.538 98.144C172.706 98.144 171.965 97.9573 171.314 97.584C170.674 97.2107 170.173 96.6827 169.81 96C169.447 95.3173 169.266 94.5173 169.266 93.6ZM178.985 93.6C178.985 92.6933 179.166 91.904 179.529 91.232C179.892 90.5493 180.393 90.0213 181.033 89.648C181.684 89.2747 182.425 89.088 183.257 89.088C184.334 89.088 185.22 89.3493 185.913 89.872C186.617 90.3947 187.081 91.12 187.305 92.048H185.737C185.588 91.5147 185.294 91.0933 184.857 90.784C184.43 90.4747 183.897 90.32 183.257 90.32C182.425 90.32 181.753 90.608 181.241 91.184C180.729 91.7493 180.473 92.5547 180.473 93.6C180.473 94.656 180.729 95.472 181.241 96.048C181.753 96.624 182.425 96.912 183.257 96.912C183.897 96.912 184.43 96.7627 184.857 96.464C185.284 96.1653 185.577 95.7387 185.737 95.184H187.305C187.07 96.08 186.601 96.8 185.897 97.344C185.193 97.8773 184.313 98.144 183.257 98.144C182.425 98.144 181.684 97.9573 181.033 97.584C180.393 97.2107 179.892 96.6827 179.529 96C179.166 95.3173 178.985 94.5173 178.985 93.6ZM197.248 93.28C197.248 93.5573 197.232 93.8507 197.2 94.16H190.192C190.245 95.024 190.538 95.7013 191.072 96.192C191.616 96.672 192.272 96.912 193.04 96.912C193.669 96.912 194.192 96.768 194.608 96.48C195.034 96.1813 195.333 95.7867 195.504 95.296H197.072C196.837 96.1387 196.368 96.8267 195.664 97.36C194.96 97.8827 194.085 98.144 193.04 98.144C192.208 98.144 191.461 97.9573 190.8 97.584C190.149 97.2107 189.637 96.6827 189.264 96C188.89 95.3067 188.704 94.5067 188.704 93.6C188.704 92.6933 188.885 91.8987 189.248 91.216C189.61 90.5333 190.117 90.0107 190.768 89.648C191.429 89.2747 192.186 89.088 193.04 89.088C193.872 89.088 194.608 89.2693 195.248 89.632C195.888 89.9947 196.378 90.496 196.72 91.136C197.072 91.7653 197.248 92.48 197.248 93.28ZM195.744 92.976C195.744 92.4213 195.621 91.9467 195.376 91.552C195.13 91.1467 194.794 90.8427 194.368 90.64C193.952 90.4267 193.488 90.32 192.976 90.32C192.24 90.32 191.61 90.5547 191.088 91.024C190.576 91.4933 190.282 92.144 190.208 92.976H195.744ZM200.626 86.16V98H199.17V86.16H200.626ZM211.107 93.28C211.107 93.5573 211.091 93.8507 211.059 94.16H204.051C204.104 95.024 204.398 95.7013 204.931 96.192C205.475 96.672 206.131 96.912 206.899 96.912C207.528 96.912 208.051 96.768 208.467 96.48C208.894 96.1813 209.192 95.7867 209.363 95.296H210.931C210.696 96.1387 210.227 96.8267 209.523 97.36C208.819 97.8827 207.944 98.144 206.899 98.144C206.067 98.144 205.32 97.9573 204.659 97.584C204.008 97.2107 203.496 96.6827 203.123 96C202.75 95.3067 202.563 94.5067 202.563 93.6C202.563 92.6933 202.744 91.8987 203.107 91.216C203.47 90.5333 203.976 90.0107 204.627 89.648C205.288 89.2747 206.046 89.088 206.899 89.088C207.731 89.088 208.467 89.2693 209.107 89.632C209.747 89.9947 210.238 90.496 210.579 91.136C210.931 91.7653 211.107 92.48 211.107 93.28ZM209.603 92.976C209.603 92.4213 209.48 91.9467 209.235 91.552C208.99 91.1467 208.654 90.8427 208.227 90.64C207.811 90.4267 207.347 90.32 206.835 90.32C206.099 90.32 205.47 90.5547 204.947 91.024C204.435 91.4933 204.142 92.144 204.067 92.976H209.603ZM214.485 90.656C214.741 90.1547 215.104 89.7653 215.573 89.488C216.053 89.2107 216.634 89.072 217.317 89.072V90.576H216.933C215.301 90.576 214.485 91.4613 214.485 93.232V98H213.029V89.232H214.485V90.656ZM218.454 93.584C218.454 92.688 218.635 91.904 218.998 91.232C219.36 90.5493 219.856 90.0213 220.486 89.648C221.126 89.2747 221.835 89.088 222.614 89.088C223.382 89.088 224.048 89.2533 224.614 89.584C225.179 89.9147 225.6 90.3307 225.878 90.832V89.232H227.35V98H225.878V96.368C225.59 96.88 225.158 97.3067 224.582 97.648C224.016 97.9787 223.355 98.144 222.598 98.144C221.819 98.144 221.115 97.952 220.486 97.568C219.856 97.184 219.36 96.6453 218.998 95.952C218.635 95.2587 218.454 94.4693 218.454 93.584ZM225.878 93.6C225.878 92.9387 225.744 92.3627 225.478 91.872C225.211 91.3813 224.848 91.008 224.39 90.752C223.942 90.4853 223.446 90.352 222.902 90.352C222.358 90.352 221.862 90.48 221.414 90.736C220.966 90.992 220.608 91.3653 220.342 91.856C220.075 92.3467 219.942 92.9227 219.942 93.584C219.942 94.256 220.075 94.8427 220.342 95.344C220.608 95.8347 220.966 96.2133 221.414 96.48C221.862 96.736 222.358 96.864 222.902 96.864C223.446 96.864 223.942 96.736 224.39 96.48C224.848 96.2133 225.211 95.8347 225.478 95.344C225.744 94.8427 225.878 94.2613 225.878 93.6ZM231.586 90.432V95.6C231.586 96.0267 231.677 96.3307 231.858 96.512C232.039 96.6827 232.354 96.768 232.802 96.768H233.874V98H232.562C231.751 98 231.143 97.8133 230.738 97.44C230.333 97.0667 230.13 96.4533 230.13 95.6V90.432H228.994V89.232H230.13V87.024H231.586V89.232H233.874V90.432H231.586ZM243.638 93.28C243.638 93.5573 243.622 93.8507 243.59 94.16H236.582C236.636 95.024 236.929 95.7013 237.462 96.192C238.006 96.672 238.662 96.912 239.43 96.912C240.06 96.912 240.582 96.768 240.998 96.48C241.425 96.1813 241.724 95.7867 241.894 95.296H243.462C243.228 96.1387 242.758 96.8267 242.054 97.36C241.35 97.8827 240.476 98.144 239.43 98.144C238.598 98.144 237.852 97.9573 237.19 97.584C236.54 97.2107 236.028 96.6827 235.654 96C235.281 95.3067 235.094 94.5067 235.094 93.6C235.094 92.6933 235.276 91.8987 235.638 91.216C236.001 90.5333 236.508 90.0107 237.158 89.648C237.82 89.2747 238.577 89.088 239.43 89.088C240.262 89.088 240.998 89.2693 241.638 89.632C242.278 89.9947 242.769 90.496 243.11 91.136C243.462 91.7653 243.638 92.48 243.638 93.28ZM242.134 92.976C242.134 92.4213 242.012 91.9467 241.766 91.552C241.521 91.1467 241.185 90.8427 240.758 90.64C240.342 90.4267 239.878 90.32 239.366 90.32C238.63 90.32 238.001 90.5547 237.478 91.024C236.966 91.4933 236.673 92.144 236.598 92.976H242.134ZM251.602 90.432V95.6C251.602 96.0267 251.692 96.3307 251.874 96.512C252.055 96.6827 252.37 96.768 252.818 96.768H253.89V98H252.578C251.767 98 251.159 97.8133 250.754 97.44C250.348 97.0667 250.146 96.4533 250.146 95.6V90.432H249.01V89.232H250.146V87.024H251.602V89.232H253.89V90.432H251.602ZM260.006 89.072C260.667 89.072 261.265 89.216 261.798 89.504C262.331 89.7813 262.747 90.2027 263.046 90.768C263.355 91.3333 263.51 92.0213 263.51 92.832V98H262.07V93.04C262.07 92.1653 261.851 91.4987 261.414 91.04C260.977 90.5707 260.379 90.336 259.622 90.336C258.854 90.336 258.241 90.576 257.782 91.056C257.334 91.536 257.11 92.2347 257.11 93.152V98H255.654V86.16H257.11V90.48C257.398 90.032 257.793 89.6853 258.294 89.44C258.806 89.1947 259.377 89.072 260.006 89.072ZM273.888 93.28C273.888 93.5573 273.872 93.8507 273.84 94.16H266.832C266.886 95.024 267.179 95.7013 267.712 96.192C268.256 96.672 268.912 96.912 269.68 96.912C270.31 96.912 270.832 96.768 271.248 96.48C271.675 96.1813 271.974 95.7867 272.144 95.296H273.712C273.478 96.1387 273.008 96.8267 272.304 97.36C271.6 97.8827 270.726 98.144 269.68 98.144C268.848 98.144 268.102 97.9573 267.44 97.584C266.79 97.2107 266.278 96.6827 265.904 96C265.531 95.3067 265.344 94.5067 265.344 93.6C265.344 92.6933 265.526 91.8987 265.888 91.216C266.251 90.5333 266.758 90.0107 267.408 89.648C268.07 89.2747 268.827 89.088 269.68 89.088C270.512 89.088 271.248 89.2693 271.888 89.632C272.528 89.9947 273.019 90.496 273.36 91.136C273.712 91.7653 273.888 92.48 273.888 93.28ZM272.384 92.976C272.384 92.4213 272.262 91.9467 272.016 91.552C271.771 91.1467 271.435 90.8427 271.008 90.64C270.592 90.4267 270.128 90.32 269.616 90.32C268.88 90.32 268.251 90.5547 267.728 91.024C267.216 91.4933 266.923 92.144 266.848 92.976H272.384ZM276.562 87.808C276.285 87.808 276.05 87.712 275.858 87.52C275.666 87.328 275.57 87.0933 275.57 86.816C275.57 86.5387 275.666 86.304 275.858 86.112C276.05 85.92 276.285 85.824 276.562 85.824C276.829 85.824 277.053 85.92 277.234 86.112C277.426 86.304 277.522 86.5387 277.522 86.816C277.522 87.0933 277.426 87.328 277.234 87.52C277.053 87.712 276.829 87.808 276.562 87.808ZM277.266 89.232V98H275.81V89.232H277.266ZM281.204 90.656C281.46 90.1547 281.822 89.7653 282.292 89.488C282.772 89.2107 283.353 89.072 284.036 89.072V90.576H283.652C282.02 90.576 281.204 91.4613 281.204 93.232V98H279.748V89.232H281.204V90.656ZM289.438 93.584C289.438 92.688 289.619 91.904 289.982 91.232C290.345 90.5493 290.841 90.0213 291.47 89.648C292.11 89.2747 292.825 89.088 293.614 89.088C294.297 89.088 294.931 89.248 295.518 89.568C296.105 89.8773 296.553 90.288 296.862 90.8V86.16H298.334V98H296.862V96.352C296.574 96.8747 296.147 97.3067 295.582 97.648C295.017 97.9787 294.355 98.144 293.598 98.144C292.819 98.144 292.11 97.952 291.47 97.568C290.841 97.184 290.345 96.6453 289.982 95.952C289.619 95.2587 289.438 94.4693 289.438 93.584ZM296.862 93.6C296.862 92.9387 296.729 92.3627 296.462 91.872C296.195 91.3813 295.833 91.008 295.374 90.752C294.926 90.4853 294.43 90.352 293.886 90.352C293.342 90.352 292.846 90.48 292.398 90.736C291.95 90.992 291.593 91.3653 291.326 91.856C291.059 92.3467 290.926 92.9227 290.926 93.584C290.926 94.256 291.059 94.8427 291.326 95.344C291.593 95.8347 291.95 96.2133 292.398 96.48C292.846 96.736 293.342 96.864 293.886 96.864C294.43 96.864 294.926 96.736 295.374 96.48C295.833 96.2133 296.195 95.8347 296.462 95.344C296.729 94.8427 296.862 94.2613 296.862 93.6ZM301.547 87.808C301.269 87.808 301.035 87.712 300.843 87.52C300.651 87.328 300.555 87.0933 300.555 86.816C300.555 86.5387 300.651 86.304 300.843 86.112C301.035 85.92 301.269 85.824 301.547 85.824C301.813 85.824 302.037 85.92 302.219 86.112C302.411 86.304 302.507 86.5387 302.507 86.816C302.507 87.0933 302.411 87.328 302.219 87.52C302.037 87.712 301.813 87.808 301.547 87.808ZM302.251 89.232V98H300.795V89.232H302.251ZM308.348 89.088C309.105 89.088 309.767 89.2533 310.332 89.584C310.908 89.9147 311.335 90.3307 311.612 90.832V89.232H313.084V98.192C313.084 98.992 312.913 99.7013 312.572 100.32C312.231 100.949 311.74 101.44 311.1 101.792C310.471 102.144 309.735 102.32 308.892 102.32C307.74 102.32 306.78 102.048 306.012 101.504C305.244 100.96 304.791 100.219 304.652 99.28H306.092C306.252 99.8133 306.583 100.24 307.084 100.56C307.585 100.891 308.188 101.056 308.892 101.056C309.692 101.056 310.343 100.805 310.844 100.304C311.356 99.8027 311.612 99.0987 311.612 98.192V96.352C311.324 96.864 310.897 97.2907 310.332 97.632C309.767 97.9733 309.105 98.144 308.348 98.144C307.569 98.144 306.86 97.952 306.22 97.568C305.591 97.184 305.095 96.6453 304.732 95.952C304.369 95.2587 304.188 94.4693 304.188 93.584C304.188 92.688 304.369 91.904 304.732 91.232C305.095 90.5493 305.591 90.0213 306.22 89.648C306.86 89.2747 307.569 89.088 308.348 89.088ZM311.612 93.6C311.612 92.9387 311.479 92.3627 311.212 91.872C310.945 91.3813 310.583 91.008 310.124 90.752C309.676 90.4853 309.18 90.352 308.636 90.352C308.092 90.352 307.596 90.48 307.148 90.736C306.7 90.992 306.343 91.3653 306.076 91.856C305.809 92.3467 305.676 92.9227 305.676 93.584C305.676 94.256 305.809 94.8427 306.076 95.344C306.343 95.8347 306.7 96.2133 307.148 96.48C307.596 96.736 308.092 96.864 308.636 96.864C309.18 96.864 309.676 96.736 310.124 96.48C310.583 96.2133 310.945 95.8347 311.212 95.344C311.479 94.8427 311.612 94.2613 311.612 93.6ZM316.297 87.808C316.019 87.808 315.785 87.712 315.593 87.52C315.401 87.328 315.305 87.0933 315.305 86.816C315.305 86.5387 315.401 86.304 315.593 86.112C315.785 85.92 316.019 85.824 316.297 85.824C316.563 85.824 316.787 85.92 316.969 86.112C317.161 86.304 317.257 86.5387 317.257 86.816C317.257 87.0933 317.161 87.328 316.969 87.52C316.787 87.712 316.563 87.808 316.297 87.808ZM317.001 89.232V98H315.545V89.232H317.001ZM321.258 90.432V95.6C321.258 96.0267 321.349 96.3307 321.53 96.512C321.711 96.6827 322.026 96.768 322.474 96.768H323.546V98H322.234C321.423 98 320.815 97.8133 320.41 97.44C320.005 97.0667 319.802 96.4533 319.802 95.6V90.432H318.666V89.232H319.802V87.024H321.258V89.232H323.546V90.432H321.258ZM324.766 93.584C324.766 92.688 324.947 91.904 325.31 91.232C325.673 90.5493 326.169 90.0213 326.798 89.648C327.438 89.2747 328.147 89.088 328.926 89.088C329.694 89.088 330.361 89.2533 330.926 89.584C331.491 89.9147 331.913 90.3307 332.19 90.832V89.232H333.662V98H332.19V96.368C331.902 96.88 331.47 97.3067 330.894 97.648C330.329 97.9787 329.667 98.144 328.91 98.144C328.131 98.144 327.427 97.952 326.798 97.568C326.169 97.184 325.673 96.6453 325.31 95.952C324.947 95.2587 324.766 94.4693 324.766 93.584ZM332.19 93.6C332.19 92.9387 332.057 92.3627 331.79 91.872C331.523 91.3813 331.161 91.008 330.702 90.752C330.254 90.4853 329.758 90.352 329.214 90.352C328.67 90.352 328.174 90.48 327.726 90.736C327.278 90.992 326.921 91.3653 326.654 91.856C326.387 92.3467 326.254 92.9227 326.254 93.584C326.254 94.256 326.387 94.8427 326.654 95.344C326.921 95.8347 327.278 96.2133 327.726 96.48C328.174 96.736 328.67 96.864 329.214 96.864C329.758 96.864 330.254 96.736 330.702 96.48C331.161 96.2133 331.523 95.8347 331.79 95.344C332.057 94.8427 332.19 94.2613 332.19 93.6ZM337.579 86.16V98H336.123V86.16H337.579ZM345.11 87.808C344.832 87.808 344.598 87.712 344.406 87.52C344.224 87.328 344.134 87.0933 344.134 86.816C344.134 86.5387 344.224 86.304 344.406 86.112C344.598 85.92 344.832 85.824 345.11 85.824C345.387 85.824 345.616 85.92 345.798 86.112C345.99 86.304 346.086 86.5387 346.086 86.816C346.086 87.0933 345.99 87.328 345.798 87.52C345.616 87.712 345.387 87.808 345.11 87.808ZM345.83 99.904C345.83 100.683 345.632 101.253 345.238 101.616C344.843 101.979 344.267 102.16 343.51 102.16H342.662V100.928H343.27C343.675 100.928 343.958 100.848 344.118 100.688C344.288 100.528 344.374 100.256 344.374 99.872V89.232H345.83V99.904ZM352.119 98.144C351.297 98.144 350.551 97.9573 349.879 97.584C349.217 97.2107 348.695 96.6827 348.311 96C347.937 95.3067 347.751 94.5067 347.751 93.6C347.751 92.704 347.943 91.9147 348.327 91.232C348.721 90.5387 349.255 90.0107 349.927 89.648C350.599 89.2747 351.351 89.088 352.183 89.088C353.015 89.088 353.767 89.2747 354.439 89.648C355.111 90.0107 355.639 90.5333 356.023 91.216C356.417 91.8987 356.615 92.6933 356.615 93.6C356.615 94.5067 356.412 95.3067 356.007 96C355.612 96.6827 355.073 97.2107 354.391 97.584C353.708 97.9573 352.951 98.144 352.119 98.144ZM352.119 96.864C352.641 96.864 353.132 96.7413 353.591 96.496C354.049 96.2507 354.417 95.8827 354.695 95.392C354.983 94.9013 355.127 94.304 355.127 93.6C355.127 92.896 354.988 92.2987 354.711 91.808C354.433 91.3173 354.071 90.9547 353.623 90.72C353.175 90.4747 352.689 90.352 352.167 90.352C351.633 90.352 351.143 90.4747 350.695 90.72C350.257 90.9547 349.905 91.3173 349.639 91.808C349.372 92.2987 349.239 92.896 349.239 93.6C349.239 94.3147 349.367 94.9173 349.623 95.408C349.889 95.8987 350.241 96.2667 350.679 96.512C351.116 96.7467 351.596 96.864 352.119 96.864ZM366.305 89.232V98H364.849V96.704C364.572 97.152 364.182 97.504 363.681 97.76C363.19 98.0053 362.646 98.128 362.049 98.128C361.366 98.128 360.753 97.9893 360.209 97.712C359.665 97.424 359.233 96.9973 358.913 96.432C358.604 95.8667 358.449 95.1787 358.449 94.368V89.232H359.889V94.176C359.889 95.04 360.108 95.7067 360.545 96.176C360.982 96.6347 361.58 96.864 362.337 96.864C363.116 96.864 363.729 96.624 364.177 96.144C364.625 95.664 364.849 94.9653 364.849 94.048V89.232H366.305ZM370.219 90.656C370.475 90.1547 370.838 89.7653 371.307 89.488C371.787 89.2107 372.369 89.072 373.051 89.072V90.576H372.667C371.035 90.576 370.219 91.4613 370.219 93.232V98H368.763V89.232H370.219V90.656ZM379.004 89.072C380.071 89.072 380.935 89.3973 381.596 90.048C382.257 90.688 382.588 91.616 382.588 92.832V98H381.148V93.04C381.148 92.1653 380.929 91.4987 380.492 91.04C380.055 90.5707 379.457 90.336 378.7 90.336C377.932 90.336 377.319 90.576 376.86 91.056C376.412 91.536 376.188 92.2347 376.188 93.152V98H374.732V89.232H376.188V90.48C376.476 90.032 376.865 89.6853 377.356 89.44C377.857 89.1947 378.407 89.072 379.004 89.072ZM392.966 93.28C392.966 93.5573 392.95 93.8507 392.918 94.16H385.91C385.964 95.024 386.257 95.7013 386.79 96.192C387.334 96.672 387.99 96.912 388.758 96.912C389.388 96.912 389.91 96.768 390.326 96.48C390.753 96.1813 391.052 95.7867 391.222 95.296H392.79C392.556 96.1387 392.086 96.8267 391.382 97.36C390.678 97.8827 389.804 98.144 388.758 98.144C387.926 98.144 387.18 97.9573 386.518 97.584C385.868 97.2107 385.356 96.6827 384.982 96C384.609 95.3067 384.422 94.5067 384.422 93.6C384.422 92.6933 384.604 91.8987 384.966 91.216C385.329 90.5333 385.836 90.0107 386.486 89.648C387.148 89.2747 387.905 89.088 388.758 89.088C389.59 89.088 390.326 89.2693 390.966 89.632C391.606 89.9947 392.097 90.496 392.438 91.136C392.79 91.7653 392.966 92.48 392.966 93.28ZM391.462 92.976C391.462 92.4213 391.34 91.9467 391.094 91.552C390.849 91.1467 390.513 90.8427 390.086 90.64C389.67 90.4267 389.206 90.32 388.694 90.32C387.958 90.32 387.329 90.5547 386.806 91.024C386.294 91.4933 386.001 92.144 385.926 92.976H391.462ZM402.44 89.232L397.16 102.128H395.656L397.384 97.904L393.848 89.232H395.464L398.216 96.336L400.936 89.232H402.44Z" fill="white"></path><defs><clipPath id="clip0_286_50887"><rect width="319.73" height="54.6689" fill="white" transform="translate(77.0332 7.86942)"></rect></clipPath></defs></svg>