<svg width="184" height="62" viewBox="0 0 184 62" fill="none" xmlns="http://www.w3.org/2000/svg"><path d="M18.8162 43.3195H24.9797C24.9797 43.3195 23.6211 45.6678 22.5241 47.0048C21.4411 48.3249 19.4332 50.0973 19.4332 50.0973C13.6807 44.7556 2.16796 34.0648 1.55921 32.8416C1.02796 31.7741 0.62587 29.9288 1.55921 28.525C7.71343 19.269 15.1091 9.40719 23.1315 3.87221C35.9447 -4.96812 42.8547 9.42024 42.8547 9.42024C42.8547 9.42024 38.5401 1.41034 29.295 7.57118C27.4466 8.80298 23.1313 13.1162 18.8162 18.6655C12.5178 26.7652 17.5835 31.6089 20.6652 32.8416L18.8162 43.3195Z" fill="white" stroke="white" stroke-width="0.5"></path><path d="M23.7581 20.5038C20.6763 20.5038 19.4295 22.3531 19.4295 22.3531C19.4295 22.3531 21.067 19.3477 22.5112 17.4221C23.9554 15.4964 26.8257 12.4912 26.8257 12.4912C32.5782 17.833 43.4883 28.5238 44.097 29.747C44.6283 30.8145 45.0304 32.6598 44.097 34.0635C37.9428 43.3195 30.6219 53.3161 22.5112 58.721C11.4169 66.114 3.40434 53.1542 3.40434 53.1542C3.40434 53.1542 9.40619 59.0689 16.3477 55.0197C23.7439 50.7052 28.0584 43.2884 28.0584 43.2884C28.0584 43.2884 26.8253 35.2964 26.2089 32.831C26.2089 32.831 29.8909 30.9843 29.9075 26.6675C29.9216 22.9692 27.1583 20.5038 23.7581 20.5038Z" fill="white" stroke="white" stroke-width="0.5"></path><path d="M58.6523 44.6806C58.6523 43.5447 58.7633 42.6087 58.9852 41.8727C59.2229 41.1366 59.5953 40.5606 60.1025 40.1447C60.6096 39.7288 61.2595 39.4408 62.0519 39.2807C62.8602 39.1207 63.8349 39.0408 64.976 39.0408C65.5624 39.0408 66.125 39.0647 66.6639 39.1127C67.2186 39.1447 67.7812 39.2087 68.3517 39.3047C68.8272 39.3847 69.1283 39.4967 69.2551 39.6407C69.3978 39.7687 69.4691 39.9527 69.4691 40.1927V40.7927C69.1679 40.6487 68.748 40.5287 68.2091 40.4327C67.6702 40.3206 67.1155 40.2407 66.545 40.1927C65.9744 40.1447 65.4673 40.1207 65.0235 40.1207C63.9141 40.1207 63.0266 40.2568 62.3609 40.5287C61.7112 40.7848 61.2436 41.2408 60.9583 41.8967C60.6731 42.5526 60.5304 43.4806 60.5304 44.6806C60.5304 45.8806 60.6651 46.8166 60.9346 47.4886C61.204 48.1445 61.6715 48.6086 62.3372 48.8805C63.0187 49.1524 63.9537 49.2885 65.1424 49.2885C65.5703 49.2885 66.0537 49.2645 66.5925 49.2165C67.1314 49.1685 67.6544 49.0965 68.1616 49.0005C68.6687 48.8884 69.1046 48.7766 69.4691 48.6645V49.2165C69.4691 49.4246 69.3978 49.6084 69.2551 49.7685C69.1125 49.9125 68.7955 50.0164 68.3042 50.0805C67.7495 50.1926 67.1948 50.2646 66.6401 50.2965C66.0854 50.3445 65.5148 50.3685 64.9284 50.3685C63.7556 50.3685 62.7651 50.2886 61.9568 50.1285C61.1485 49.9526 60.4987 49.6646 60.0074 49.2645C59.5319 48.8486 59.1833 48.2726 58.9614 47.5366C58.7554 46.8005 58.6523 45.8487 58.6523 44.6806ZM77.2488 50.3685C76.2979 50.3685 75.4579 50.2965 74.7289 50.1525C73.9998 50.0085 73.3738 49.7445 72.8508 49.3605C72.3436 48.9604 71.9553 48.3845 71.6859 47.6326C71.4165 46.8807 71.2818 45.8885 71.2818 44.6566C71.2818 43.4086 71.4244 42.4086 71.7097 41.6567C72.0108 40.8887 72.4308 40.3127 72.9697 39.9287C73.5085 39.5447 74.1504 39.2887 74.8953 39.1607C75.656 39.0328 76.5039 38.9688 77.439 38.9688C78.3741 38.9688 79.2061 39.0407 79.9352 39.1847C80.6642 39.3127 81.2823 39.5767 81.7895 39.9767C82.3125 40.3607 82.7088 40.9288 82.9781 41.6807C83.2475 42.4326 83.3823 43.4247 83.3823 44.6566C83.3823 45.9207 83.2318 46.9287 82.9306 47.6806C82.6453 48.4325 82.2333 49.0084 81.6944 49.4085C81.1714 49.7925 80.5295 50.0486 79.7688 50.1765C79.0239 50.3044 78.1839 50.3685 77.2488 50.3685ZM77.3201 49.3365C77.9858 49.3365 78.5801 49.2806 79.1031 49.1685C79.6261 49.0406 80.0619 48.8165 80.4106 48.4965C80.7751 48.1766 81.0446 47.7125 81.2189 47.1046C81.4091 46.4806 81.5042 45.6646 81.5042 44.6566C81.5042 43.6647 81.4091 42.8646 81.2189 42.2567C81.0446 41.6327 80.7751 41.1606 80.4106 40.8407C80.0619 40.5047 79.6261 40.2808 79.1031 40.1687C78.5801 40.0566 77.9858 40.0007 77.3201 40.0007C76.6386 40.0007 76.0364 40.0566 75.5134 40.1687C75.0062 40.2808 74.5783 40.5047 74.2296 40.8407C73.881 41.1606 73.6115 41.6327 73.4213 42.2567C73.247 42.8646 73.1598 43.6647 73.1598 44.6566C73.1598 45.6646 73.247 46.4806 73.4213 47.1046C73.6115 47.7125 73.881 48.1766 74.2296 48.4965C74.5783 48.8165 75.0062 49.0406 75.5134 49.1685C76.0364 49.2806 76.6386 49.3365 77.3201 49.3365ZM86.4164 50.2005V40.1447C86.4164 39.7127 86.4483 39.4408 86.5115 39.3287C86.5909 39.2167 86.8049 39.1607 87.1534 39.1607H88.7462L95.8305 48.3045L95.9019 48.3525V39.1607H97.3045C97.2888 39.1768 97.2728 39.2407 97.2569 39.3527C97.2412 39.4487 97.2331 39.5608 97.2331 39.6887C97.2331 39.8008 97.2331 39.9126 97.2331 40.0247V49.2885C97.2331 49.7044 97.1778 49.9605 97.0667 50.0565C96.9716 50.1525 96.7577 50.2005 96.4249 50.2005H94.9509L87.7952 40.9847L87.7715 40.8887V50.2005H86.4164ZM100.515 48.5205C100.847 48.7444 101.275 48.9124 101.798 49.0245C102.337 49.1205 102.892 49.1846 103.462 49.2165C104.049 49.2326 104.556 49.2405 104.984 49.2405C105.142 49.2405 105.325 49.2405 105.531 49.2405C105.737 49.2405 105.919 49.2326 106.077 49.2165C106.711 49.2004 107.266 49.1284 107.742 49.0005C108.217 48.8565 108.589 48.6245 108.859 48.3045C109.128 47.9685 109.263 47.4965 109.263 46.8886C109.263 46.1525 109.073 45.6725 108.692 45.4486C108.312 45.2247 107.757 45.1126 107.028 45.1126C106.791 45.1126 106.537 45.1126 106.268 45.1126C105.998 45.1126 105.713 45.1126 105.412 45.1126C105.111 45.1126 104.762 45.1126 104.366 45.1126C103.922 45.1126 103.47 45.0965 103.011 45.0646C102.551 45.0166 102.131 44.9127 101.751 44.7526C101.37 44.5767 101.069 44.3127 100.847 43.9606C100.625 43.5927 100.515 43.0727 100.515 42.4007C100.515 41.6166 100.649 41.0008 100.919 40.5527C101.204 40.1046 101.6 39.7768 102.107 39.5687C102.614 39.3607 103.193 39.2248 103.843 39.1607C104.508 39.0967 105.214 39.0647 105.959 39.0647C106.402 39.0647 106.901 39.0727 107.456 39.0887C108.027 39.1048 108.558 39.1447 109.049 39.2087C109.556 39.2728 109.952 39.3847 110.238 39.5447C110.491 39.5767 110.681 39.6568 110.808 39.7847C110.951 39.9126 111.022 40.0727 111.022 40.2647C111.022 40.3288 111.022 40.4087 111.022 40.5047C111.022 40.5846 111.022 40.6648 111.022 40.7447C111.022 40.8246 111.022 40.8808 111.022 40.9127C110.88 40.7526 110.642 40.6247 110.309 40.5287C109.976 40.4327 109.596 40.3607 109.168 40.3127C108.756 40.2486 108.352 40.2088 107.955 40.1927C107.559 40.1608 107.234 40.1447 106.981 40.1447H105.578C105.008 40.1447 104.477 40.1927 103.985 40.2887C103.494 40.3847 103.098 40.5846 102.797 40.8887C102.511 41.1767 102.369 41.6406 102.369 42.2807C102.369 42.7767 102.464 43.1447 102.654 43.3847C102.86 43.6246 103.145 43.7847 103.51 43.8646C103.874 43.9287 104.31 43.9606 104.817 43.9606C105.436 43.9606 105.982 43.9606 106.458 43.9606C106.933 43.9606 107.321 43.9606 107.623 43.9606C108.32 43.9606 108.938 44.0247 109.477 44.1526C110.016 44.2647 110.436 44.5287 110.737 44.9446C111.038 45.3447 111.189 45.9766 111.189 46.8406C111.189 47.6885 110.998 48.3605 110.618 48.8565C110.253 49.3526 109.746 49.7044 109.097 49.9125C108.463 50.1206 107.733 50.2485 106.909 50.2965C106.513 50.3126 106.133 50.3205 105.768 50.3205C105.404 50.3366 105.023 50.3366 104.627 50.3205C104.263 50.3205 103.843 50.3044 103.367 50.2725C102.892 50.2406 102.432 50.1926 101.988 50.1285C101.561 50.0486 101.204 49.9365 100.919 49.7925C100.649 49.6324 100.515 49.4246 100.515 49.1685V48.5205ZM124.546 45.4726C124.546 46.1607 124.514 46.8005 124.45 47.3926C124.387 47.9685 124.189 48.4725 123.856 48.9045C123.539 49.3365 123.016 49.6725 122.287 49.9125C121.574 50.1525 120.559 50.2725 119.244 50.2725C118.198 50.2725 117.342 50.2005 116.677 50.0565C116.027 49.8964 115.52 49.6725 115.155 49.3845C114.806 49.0965 114.553 48.7605 114.394 48.3765C114.236 47.9925 114.133 47.5685 114.085 47.1046C114.054 46.6246 114.038 46.1285 114.038 45.6166V40.1207C114.038 39.8647 114.046 39.6647 114.062 39.5207C114.077 39.3767 114.141 39.2807 114.252 39.2327C114.363 39.1847 114.529 39.1607 114.751 39.1607H115.868V46.4326C115.868 47.1526 115.979 47.7125 116.201 48.1125C116.439 48.4965 116.803 48.7684 117.295 48.9285C117.802 49.0886 118.452 49.1685 119.244 49.1685C120.48 49.1685 121.368 48.9604 121.907 48.5445C122.461 48.1125 122.739 47.4086 122.739 46.4326V39.1607H123.809C124.046 39.1607 124.221 39.1847 124.332 39.2327C124.442 39.2807 124.506 39.3767 124.522 39.5207C124.537 39.6647 124.546 39.8647 124.546 40.1207V45.4726ZM130.058 39.1607V49.1445H137.357V50.2005H128.251V39.9527C128.251 39.7768 128.259 39.6328 128.275 39.5207C128.291 39.4087 128.347 39.3208 128.442 39.2567C128.537 39.1927 128.687 39.1607 128.893 39.1607H130.058ZM137.597 39.1607H148.413V40.2407H143.92V49.4085C143.92 49.7126 143.881 49.9204 143.801 50.0325C143.738 50.1446 143.564 50.2005 143.278 50.2005H142.114V40.2407H137.597V39.1607ZM150.91 50.2005C150.91 48.4886 150.91 46.7765 150.91 45.0646C150.91 43.3527 150.91 41.6406 150.91 39.9287C150.91 39.7528 150.918 39.6167 150.934 39.5207C150.966 39.4087 151.021 39.3208 151.1 39.2567C151.195 39.1927 151.346 39.1607 151.552 39.1607H152.741V50.2005H150.91ZM156.691 50.2005V40.1447C156.691 39.7127 156.723 39.4408 156.786 39.3287C156.865 39.2167 157.079 39.1607 157.428 39.1607H159.021L166.105 48.3045L166.176 48.3525V39.1607H167.579C167.563 39.1768 167.547 39.2407 167.531 39.3527C167.516 39.4487 167.508 39.5608 167.508 39.6887C167.508 39.8008 167.508 39.9126 167.508 40.0247V49.2885C167.508 49.7044 167.452 49.9605 167.341 50.0565C167.246 50.1525 167.032 50.2005 166.699 50.2005H165.225L158.07 40.9847L158.046 40.8887V50.2005H156.691ZM176.471 50.3685C175.377 50.3685 174.458 50.2804 173.713 50.1045C172.968 49.9286 172.366 49.6245 171.906 49.1925C171.462 48.7444 171.138 48.1605 170.931 47.4406C170.725 46.7045 170.622 45.7925 170.622 44.7046C170.622 43.5046 170.757 42.5368 171.027 41.8007C171.296 41.0488 171.684 40.4728 172.191 40.0727C172.714 39.6727 173.348 39.4007 174.093 39.2567C174.838 39.0967 175.694 39.0168 176.661 39.0168C177.453 39.0168 178.182 39.0407 178.848 39.0887C179.529 39.1207 180.116 39.1927 180.607 39.3047C180.924 39.3527 181.154 39.4247 181.297 39.5207C181.455 39.6167 181.55 39.7288 181.582 39.8567C181.629 39.9688 181.653 40.0888 181.653 40.2167V40.6967C181.542 40.6007 181.344 40.5208 181.059 40.4567C180.774 40.3926 180.441 40.3367 180.06 40.2887C179.696 40.2407 179.316 40.2006 178.919 40.1687C178.523 40.1207 178.143 40.0967 177.778 40.0967C177.429 40.0806 177.136 40.0727 176.899 40.0727C175.789 40.0727 174.918 40.2088 174.283 40.4807C173.649 40.7526 173.19 41.2247 172.905 41.8967C172.635 42.5526 172.501 43.4886 172.501 44.7046C172.501 45.8727 172.619 46.7926 172.857 47.4646C173.111 48.1365 173.531 48.6165 174.117 48.9045C174.719 49.1764 175.528 49.3125 176.542 49.3125C177.461 49.3125 178.19 49.2244 178.729 49.0485C179.268 48.8726 179.664 48.5366 179.918 48.0405C180.171 47.5445 180.306 46.8485 180.322 45.9526C180.338 45.7445 180.338 45.5686 180.322 45.4246C180.322 45.2645 180.322 45.1445 180.322 45.0646H175.829C175.829 44.7766 175.845 44.5606 175.876 44.4166C175.924 44.2726 176.011 44.1687 176.138 44.1046C176.28 44.0406 176.494 44.0086 176.78 44.0086H182.105V45.9046C182.105 46.7686 182.002 47.4886 181.796 48.0645C181.606 48.6245 181.289 49.0804 180.845 49.4325C180.417 49.7685 179.839 50.0085 179.109 50.1525C178.396 50.2965 177.517 50.3685 176.471 50.3685Z" fill="white"></path><path d="M63.517 28.603C62.1159 28.603 61.0858 28.5406 60.4265 28.4158C59.7672 28.291 59.4375 28.1454 59.4375 27.979L60.6737 25.2647C61.1476 25.3479 62.322 25.4311 64.1969 25.5143C66.0924 25.5767 68.6884 25.6079 71.9849 25.6079H72.5721C73.4581 25.6079 74.0865 25.4519 74.4573 25.1399C74.8282 24.8071 75.0136 24.2559 75.0136 23.4863V22.8623C75.0136 22.1344 74.8591 21.6144 74.55 21.3024C74.2616 20.9904 73.6023 20.8344 72.5721 20.8344H65.4022C63.3212 20.8344 61.8069 20.4496 60.8591 19.68C59.9114 18.8896 59.4375 17.6105 59.4375 15.8425V15.3433C59.4375 14.4281 59.6023 13.5857 59.932 12.8162C60.2822 12.0466 60.8694 11.433 61.6936 10.9754C62.5177 10.497 63.6509 10.2578 65.0931 10.2578H73.4993C74.9003 10.2578 76.0335 10.3306 76.8988 10.4762C77.7641 10.6218 78.1968 10.7778 78.1968 10.9442L77.5787 13.5649C77.043 13.5025 75.8274 13.4401 73.9319 13.3777C72.0364 13.2945 69.4919 13.2529 66.2984 13.2529L65.9584 13.2217C65.0107 13.2217 64.372 13.4193 64.0423 13.8145C63.7127 14.1889 63.5376 14.6673 63.517 15.2497V15.7801C63.517 16.4665 63.7024 16.9865 64.0732 17.3401C64.4647 17.6729 65.1034 17.8392 65.9894 17.8392H72.8503C74.1689 17.8392 75.2917 17.9744 76.2189 18.2448C77.146 18.5152 77.8569 19.0144 78.3513 19.7424C78.8458 20.4496 79.0931 21.4999 79.0931 22.8935V23.3927C79.0931 24.9527 78.6913 26.211 77.8878 27.1678C77.1048 28.1246 75.7347 28.603 73.7774 28.603H63.517ZM87.4949 28.603C86.4646 28.603 85.6715 28.4678 85.1152 28.1974C84.559 27.927 84.1572 27.5838 83.91 27.1678C83.6832 26.7518 83.5391 26.3151 83.4773 25.8575C83.4359 25.3999 83.4155 24.9839 83.4155 24.6095V18.6192C83.4155 18.3072 83.4359 17.9328 83.4773 17.496C83.5391 17.0385 83.6832 16.5913 83.91 16.1545C84.1572 15.7177 84.559 15.3537 85.1152 15.0625C85.692 14.7713 86.4853 14.6257 87.4949 14.6257H94.1395C95.4993 14.6257 96.5603 14.7609 97.3227 15.0313C98.1056 15.2809 98.6516 15.6969 98.9607 16.2793C99.2902 16.8617 99.4551 17.6417 99.4551 18.6192V23.2367H94.0468C92.1925 23.2367 90.6781 23.1951 89.5037 23.1119C88.3498 23.0287 87.5772 22.9767 87.1859 22.9559V24.6719C87.1652 25.5039 87.6597 25.9199 88.6693 25.9199H90.2455C91.358 25.9199 92.4397 25.9095 93.4905 25.8887C94.5617 25.8471 95.5404 25.8055 96.4265 25.7639C97.3122 25.7015 98.0231 25.6495 98.5589 25.6079L99.7951 27.6358C99.7951 28.2806 97.7656 28.603 93.7068 28.603H87.4949ZM87.1859 20.5536H95.6847V18.5568C95.6847 18.1408 95.6332 17.8496 95.5302 17.6832C95.4477 17.5169 95.1798 17.4128 94.7267 17.3713C94.2733 17.3297 93.5007 17.3089 92.4088 17.3089H88.6693C87.6804 17.3089 87.1859 17.7248 87.1859 18.5568V20.5536ZM107.587 28.603C106.557 28.603 105.763 28.4678 105.207 28.1974C104.651 27.927 104.249 27.5838 104.002 27.1678C103.775 26.7518 103.631 26.3151 103.569 25.8575C103.528 25.3999 103.507 24.9839 103.507 24.6095V18.6192C103.507 18.3072 103.528 17.9328 103.569 17.496C103.631 17.0385 103.775 16.5913 104.002 16.1545C104.249 15.7177 104.651 15.3537 105.207 15.0625C105.784 14.7713 106.577 14.6257 107.587 14.6257H111.883C114.458 14.6257 116.281 14.6985 117.353 14.8441C118.445 14.9689 118.991 15.1041 118.991 15.2497L118.373 17.6208C117.796 17.5793 117.064 17.5376 116.178 17.496C115.292 17.4337 114.334 17.3921 113.304 17.3713C112.294 17.3297 111.306 17.3089 110.337 17.3089H108.761C107.772 17.3089 107.278 17.7248 107.278 18.5568V24.6719C107.257 25.5039 107.751 25.9199 108.761 25.9199H110.337C111.45 25.9199 112.532 25.9095 113.582 25.8887C114.654 25.8471 115.632 25.8055 116.518 25.7639C117.404 25.7015 118.115 25.6495 118.651 25.6079L119.887 27.6358C119.887 28.2806 117.857 28.603 113.799 28.603H107.587ZM127.052 28.603C126.042 28.603 125.249 28.4678 124.672 28.1974C124.116 27.927 123.714 27.5838 123.467 27.1678C123.24 26.7518 123.096 26.3151 123.034 25.8575C122.993 25.3999 122.973 24.9839 122.973 24.6095V14.6257H126.743V24.6719C126.722 25.1295 126.867 25.4519 127.176 25.6391C127.505 25.8263 127.856 25.9199 128.226 25.9199H134.346C134.799 25.9199 135.067 25.8783 135.149 25.7951C135.231 25.7119 135.273 25.4415 135.273 24.9839V14.6257H139.043V28.603H136.509L135.335 27.979C134.51 28.1454 133.532 28.291 132.399 28.4158C131.286 28.5406 130.029 28.603 128.628 28.603H127.052ZM143.05 28.603V26.731L153.032 17.3401H143.668V14.6257H158.811V16.4977L148.551 25.9199H159.09L160.017 28.2598C160.017 28.343 159.708 28.4262 159.09 28.5094C158.472 28.5718 157.431 28.603 155.968 28.603H143.05ZM167.415 28.603C165.849 28.603 164.715 28.239 164.015 27.511C163.315 26.7622 162.964 25.7431 162.964 24.4535C162.964 23.1015 163.325 22.0615 164.046 21.3336C164.788 20.6056 165.911 20.2416 167.415 20.2416H168.991C170.536 20.2416 171.927 20.2832 173.163 20.3664C174.399 20.4496 175.419 20.5328 176.223 20.616V18.5568C176.223 18.3696 176.202 18.1824 176.161 17.9952C176.119 17.7872 175.996 17.6208 175.79 17.496C175.584 17.3713 175.234 17.3089 174.739 17.3089H173.194C170.948 17.3089 169.073 17.3504 167.569 17.4337C166.065 17.496 165.045 17.5584 164.51 17.6208L164.17 15.2497C164.17 14.9585 164.953 14.7817 166.518 14.7193C168.084 14.6569 170.701 14.6257 174.368 14.6257H175.914C176.944 14.6257 177.737 14.7713 178.293 15.0625C178.85 15.3537 179.241 15.7177 179.468 16.1545C179.715 16.5913 179.859 17.0385 179.9 17.496C179.962 17.9328 179.993 18.3072 179.993 18.6192V28.603H177.459L176.254 27.979C175.388 28.1246 174.348 28.2702 173.132 28.4158C171.916 28.5406 170.526 28.603 168.96 28.603H167.415ZM168.218 25.9199H175.295C175.749 25.9199 176.016 25.8783 176.099 25.7951C176.181 25.7119 176.223 25.4519 176.223 25.0151V22.6127H168.218C167.662 22.6127 167.27 22.7479 167.044 23.0183C166.838 23.2887 166.735 23.7151 166.735 24.2975C166.735 24.8799 166.858 25.2959 167.106 25.5455C167.353 25.7951 167.724 25.9199 168.218 25.9199Z" fill="white"></path></svg>