<svg width="152" height="31" viewBox="0 0 152 31" fill="none" xmlns="http://www.w3.org/2000/svg"><path d="M0.029375 16C0.029375 13.2533 0.629375 10.8 1.82938 8.64C3.02938 6.45333 4.66938 4.76 6.74938 3.56C8.82938 2.33333 11.1494 1.72 13.7094 1.72C16.8294 1.72 19.496 2.46667 21.7094 3.96C23.9494 5.42667 25.576 7.50667 26.5894 10.2H23.3094C22.5094 8.30667 21.2827 6.82667 19.6294 5.76C18.0027 4.69333 16.0294 4.16 13.7094 4.16C11.656 4.16 9.80271 4.64 8.14938 5.6C6.52271 6.56 5.24271 7.94667 4.30938 9.76C3.37604 11.5467 2.90938 13.6267 2.90938 16C2.90938 18.3733 3.37604 20.4533 4.30938 22.24C5.24271 24.0267 6.52271 25.4 8.14938 26.36C9.80271 27.32 11.656 27.8 13.7094 27.8C16.0294 27.8 18.0027 27.28 19.6294 26.24C21.2827 25.1733 22.5094 23.7067 23.3094 21.84H26.5894C25.576 24.5067 23.9494 26.5733 21.7094 28.04C19.4694 29.5067 16.8027 30.24 13.7094 30.24C11.1494 30.24 8.82938 29.64 6.74938 28.44C4.66938 27.2133 3.02938 25.52 1.82938 23.36C0.629375 21.2 0.029375 18.7467 0.029375 16ZM30.8888 19.04C30.8888 16.8 31.3288 14.84 32.2088 13.16C33.1154 11.4533 34.3554 10.1467 35.9288 9.24C37.5288 8.30667 39.3288 7.84 41.3288 7.84C43.4088 7.84 45.1954 8.32 46.6888 9.28C48.2088 10.24 49.3021 11.4667 49.9688 12.96V8.16H52.7688V30H49.9688V25.16C49.2754 26.6533 48.1688 27.8933 46.6488 28.88C45.1554 29.84 43.3688 30.32 41.2888 30.32C39.3154 30.32 37.5288 29.8533 35.9288 28.92C34.3554 27.9867 33.1154 26.6667 32.2088 24.96C31.3288 23.2533 30.8888 21.28 30.8888 19.04ZM49.9688 19.08C49.9688 17.32 49.6088 15.7733 48.8888 14.44C48.1688 13.1067 47.1821 12.08 45.9288 11.36C44.7021 10.64 43.3421 10.28 41.8488 10.28C40.3021 10.28 38.9154 10.6267 37.6888 11.32C36.4621 12.0133 35.4888 13.0267 34.7688 14.36C34.0754 15.6667 33.7288 17.2267 33.7288 19.04C33.7288 20.8267 34.0754 22.4 34.7688 23.76C35.4888 25.0933 36.4621 26.12 37.6888 26.84C38.9154 27.5333 40.3021 27.88 41.8488 27.88C43.3421 27.88 44.7021 27.52 45.9288 26.8C47.1821 26.08 48.1688 25.0533 48.8888 23.72C49.6088 22.3867 49.9688 20.84 49.9688 19.08ZM61.9609 0.4V30H59.1609V0.4H61.9609ZM71.1016 0.4V30H68.3016V0.4H71.1016ZM76.1622 19.04C76.1622 16.8 76.6022 14.84 77.4822 13.16C78.3889 11.4533 79.6289 10.1467 81.2022 9.24C82.8022 8.30667 84.6022 7.84 86.6022 7.84C88.6822 7.84 90.4689 8.32 91.9622 9.28C93.4822 10.24 94.5755 11.4667 95.2422 12.96V8.16H98.0422V30H95.2422V25.16C94.5489 26.6533 93.4422 27.8933 91.9222 28.88C90.4289 29.84 88.6422 30.32 86.5622 30.32C84.5889 30.32 82.8022 29.8533 81.2022 28.92C79.6289 27.9867 78.3889 26.6667 77.4822 24.96C76.6022 23.2533 76.1622 21.28 76.1622 19.04ZM95.2422 19.08C95.2422 17.32 94.8822 15.7733 94.1622 14.44C93.4422 13.1067 92.4555 12.08 91.2022 11.36C89.9755 10.64 88.6155 10.28 87.1222 10.28C85.5755 10.28 84.1889 10.6267 82.9622 11.32C81.7355 12.0133 80.7622 13.0267 80.0422 14.36C79.3489 15.6667 79.0022 17.2267 79.0022 19.04C79.0022 20.8267 79.3489 22.4 80.0422 23.76C80.7622 25.0933 81.7355 26.12 82.9622 26.84C84.1889 27.5333 85.5755 27.88 87.1222 27.88C88.6155 27.88 89.9755 27.52 91.2022 26.8C92.4555 26.08 93.4422 25.0533 94.1622 23.72C94.8822 22.3867 95.2422 20.84 95.2422 19.08ZM103.154 19.04C103.154 16.8 103.608 14.84 104.514 13.16C105.421 11.4533 106.661 10.1467 108.234 9.24C109.834 8.30667 111.634 7.84 113.634 7.84C115.554 7.84 117.288 8.30667 118.834 9.24C120.381 10.1733 121.514 11.3867 122.234 12.88V0.4H125.034V30H122.234V25.12C121.568 26.64 120.474 27.8933 118.954 28.88C117.434 29.84 115.648 30.32 113.594 30.32C111.594 30.32 109.794 29.8533 108.194 28.92C106.621 27.9867 105.381 26.6667 104.474 24.96C103.594 23.2533 103.154 21.28 103.154 19.04ZM122.234 19.08C122.234 17.32 121.874 15.7733 121.154 14.44C120.434 13.1067 119.448 12.08 118.194 11.36C116.968 10.64 115.608 10.28 114.114 10.28C112.568 10.28 111.181 10.6267 109.954 11.32C108.728 12.0133 107.754 13.0267 107.034 14.36C106.341 15.6667 105.994 17.2267 105.994 19.04C105.994 20.8267 106.341 22.4 107.034 23.76C107.754 25.0933 108.728 26.12 109.954 26.84C111.181 27.5333 112.568 27.88 114.114 27.88C115.608 27.88 116.968 27.52 118.194 26.8C119.448 26.08 120.434 25.0533 121.154 23.72C121.874 22.3867 122.234 20.84 122.234 19.08ZM140.987 30.32C138.933 30.32 137.08 29.8667 135.427 28.96C133.8 28.0267 132.507 26.72 131.547 25.04C130.613 23.3333 130.147 21.3467 130.147 19.08C130.147 16.8133 130.627 14.84 131.587 13.16C132.547 11.4533 133.853 10.1467 135.507 9.24C137.16 8.30667 139.013 7.84 141.067 7.84C143.12 7.84 144.973 8.30667 146.627 9.24C148.307 10.1467 149.613 11.4533 150.547 13.16C151.507 14.84 151.987 16.8133 151.987 19.08C151.987 21.32 151.507 23.2933 150.547 25C149.587 26.7067 148.267 28.0267 146.587 28.96C144.907 29.8667 143.04 30.32 140.987 30.32ZM140.987 27.88C142.427 27.88 143.76 27.56 144.987 26.92C146.213 26.2533 147.2 25.2667 147.947 23.96C148.72 22.6267 149.107 21 149.107 19.08C149.107 17.16 148.733 15.5467 147.987 14.24C147.24 12.9067 146.253 11.92 145.027 11.28C143.8 10.6133 142.467 10.28 141.027 10.28C139.587 10.28 138.253 10.6133 137.027 11.28C135.8 11.92 134.813 12.9067 134.067 14.24C133.347 15.5467 132.987 17.16 132.987 19.08C132.987 21 133.347 22.6267 134.067 23.96C134.813 25.2667 135.787 26.2533 136.987 26.92C138.213 27.56 139.547 27.88 140.987 27.88Z" fill="white"></path></svg>