<svg width="175" height="57" viewBox="0 0 175 57" fill="none" xmlns="http://www.w3.org/2000/svg"><path d="M15.8346 29.8187C16.9366 29.9933 17.9372 30.4442 18.8362 31.1715C19.7643 31.8987 20.4893 32.8005 21.0113 33.8769C21.5624 34.9533 21.8379 36.1024 21.8379 37.3242C21.8379 38.8659 21.4463 40.2623 20.6633 41.5133C19.8803 42.7351 18.7347 43.7095 17.2266 44.4369C15.7476 45.135 13.993 45.4841 11.9629 45.4841H0.652344V15.0696H11.5279C13.587 15.0696 15.3416 15.4187 16.7916 16.1169C18.2417 16.786 19.3292 17.7023 20.0543 18.866C20.7793 20.0296 21.1418 21.3387 21.1418 22.7932C21.1418 24.5969 20.6488 26.0951 19.6628 27.2878C18.7057 28.4514 17.4297 29.2951 15.8346 29.8187ZM4.61103 28.2042H11.2669C13.123 28.2042 14.5585 27.7678 15.5736 26.8951C16.5886 26.0223 17.0961 24.815 17.0961 23.2732C17.0961 21.7314 16.5886 20.5241 15.5736 19.6514C14.5585 18.7787 13.0939 18.3423 11.1799 18.3423H4.61103V28.2042ZM11.6149 42.2114C13.587 42.2114 15.1241 41.7459 16.2261 40.8151C17.3281 39.8843 17.8792 38.5896 17.8792 36.9314C17.8792 35.2442 17.2992 33.9205 16.1391 32.9605C14.979 31.9714 13.4275 31.4769 11.4844 31.4769H4.61103V42.2114H11.6149ZM31.2901 13.1932V45.4841H27.3314V13.1932H31.2901ZM40.1686 14.6936C39.4146 14.6936 38.7765 14.4318 38.2545 13.9082C37.7324 13.3845 37.4714 12.7445 37.4714 11.9882C37.4714 11.2318 37.7324 10.5918 38.2545 10.0682C38.7765 9.54455 39.4146 9.28273 40.1686 9.28273C40.8937 9.28273 41.5027 9.54455 41.9957 10.0682C42.5177 10.5918 42.7787 11.2318 42.7787 11.9882C42.7787 12.7445 42.5177 13.3845 41.9957 13.9082C41.5027 14.4318 40.8937 14.6936 40.1686 14.6936ZM41.9957 21.5714V45.4841H38.037V21.5714H41.9957ZM60.3576 21.1351C63.2578 21.1351 65.607 22.0223 67.405 23.7969C69.2029 25.5423 70.1021 28.0733 70.1021 31.3896V45.4841H66.1869V31.9569C66.1869 29.5714 65.5923 27.7532 64.4033 26.5023C63.2143 25.2223 61.5901 24.5823 59.5311 24.5823C57.443 24.5823 55.7755 25.2369 54.5283 26.546C53.3103 27.8551 52.7012 29.7606 52.7012 32.2624V45.4841H48.7426V21.5714H52.7012V24.9751C53.4843 23.7532 54.5427 22.8078 55.8769 22.1387C57.2399 21.4696 58.7336 21.1351 60.3576 21.1351ZM89.8803 45.4841L80.5274 34.9242V45.4841H76.5687V13.1932H80.5274V32.1751L89.7063 21.5714H95.2311L84.0075 33.4842L95.2746 45.4841H89.8803ZM119.229 23.9714C119.229 26.5023 118.359 28.6114 116.619 30.2987C114.908 31.9569 112.283 32.786 108.745 32.786H102.916V45.4841H98.957V15.0696H108.745C112.167 15.0696 114.763 15.8987 116.532 17.5569C118.33 19.2151 119.229 21.3532 119.229 23.9714ZM108.745 29.5133C110.949 29.5133 112.573 29.0333 113.617 28.0733C114.661 27.1133 115.183 25.746 115.183 23.9714C115.183 20.2187 113.037 18.3423 108.745 18.3423H102.916V29.5133H108.745ZM122.67 33.4405C122.67 30.9969 123.163 28.8587 124.149 27.026C125.135 25.1642 126.484 23.7241 128.195 22.706C129.935 21.6878 131.863 21.1787 133.981 21.1787C136.069 21.1787 137.881 21.6296 139.418 22.5314C140.955 23.4332 142.101 24.5678 142.855 25.9351V21.5714H146.857V45.4841H142.855V41.0333C142.072 42.4296 140.897 43.5933 139.331 44.5241C137.794 45.4261 135.996 45.8769 133.937 45.8769C131.82 45.8769 129.906 45.3532 128.195 44.306C126.484 43.2587 125.135 41.7895 124.149 39.8987C123.163 38.0079 122.67 35.8551 122.67 33.4405ZM142.855 33.4842C142.855 31.6806 142.492 30.1096 141.767 28.7714C141.042 27.4333 140.056 26.4151 138.809 25.7169C137.591 24.9896 136.243 24.626 134.764 24.626C133.285 24.626 131.936 24.9751 130.718 25.6732C129.5 26.3714 128.528 27.3896 127.803 28.7278C127.078 30.066 126.716 31.6369 126.716 33.4405C126.716 35.2733 127.078 36.8733 127.803 38.2405C128.528 39.5788 129.5 40.6114 130.718 41.3387C131.936 42.0369 133.285 42.386 134.764 42.386C136.243 42.386 137.591 42.0369 138.809 41.3387C140.056 40.6114 141.042 39.5788 141.767 38.2405C142.492 36.8733 142.855 35.2878 142.855 33.4842ZM174.08 21.5714L159.724 56.7423H155.635L160.333 45.2223L150.719 21.5714H155.113L162.595 40.946L169.991 21.5714H174.08Z" fill="white"></path><path d="M39.3647 6.2742H41.5465C41.5465 6.2742 41.3472 4.80937 41.5465 3.54693C41.7566 2.2162 42.092 0.273438 42.092 0.273438H39.9102C39.9102 0.273438 39.5748 2.2162 39.3647 3.54693C39.1654 4.80937 39.3647 6.2742 39.3647 6.2742Z" fill="white"></path><path d="M44.7141 7.91057L45.805 9.54693L48.6374 6.81966L51.2596 3.54693L49.7283 2.45602L47.5465 5.18329L44.7141 7.91057Z" fill="white"></path><path d="M37.1829 7.91057L36.092 9.54693L33.3647 6.81966L30.6374 3.54693L32.1687 2.45602L34.4556 5.18329L37.1829 7.91057Z" fill="white"></path></svg>