<svg width="808" height="210" viewBox="0 0 808 210" fill="none" xmlns="http://www.w3.org/2000/svg"><mask id="path-1-outside-1_2142_5191" maskUnits="userSpaceOnUse" x="390.547" y="18.125" width="415" height="192" fill="black"><rect fill="white" x="390.547" y="18.125" width="415" height="192"></rect><path d="M468.833 19.125V86.2762H465.864V23.4227L434.018 87.5297L402.352 22.6169V86.2762H399.384V19.125H403.612L434.018 81.4413L464.694 19.125H468.833ZM500.657 87.261C496.818 87.261 493.249 86.306 489.952 84.3959C486.653 82.4859 484.044 79.9192 482.125 76.6959C480.205 73.4129 479.247 69.8913 479.247 66.1308C479.247 62.3703 480.205 58.8785 482.125 55.6552C484.044 52.3722 486.653 49.7757 489.952 47.8657C493.249 45.9557 496.818 45.0006 500.657 45.0006C504.555 45.0006 508.243 46.0452 511.722 48.1343C515.199 50.1638 517.628 52.8199 519.009 56.1029V45.9855H521.887V86.2762H519.009V76.2483C517.389 79.5908 514.871 82.2769 511.452 84.3064C508.092 86.2762 504.494 87.261 500.657 87.261ZM500.837 84.7541C504.134 84.7541 507.193 83.9185 510.013 82.2471C512.831 80.5161 515.05 78.2478 516.67 75.4424C518.348 72.5773 519.189 69.4734 519.189 66.1308C519.189 62.8478 518.348 59.7738 516.67 56.9087C514.99 54.0436 512.741 51.7754 509.923 50.1041C507.103 48.3731 504.044 47.5076 500.747 47.5076C497.448 47.5076 494.36 48.3731 491.481 50.1041C488.661 51.835 486.383 54.1331 484.644 56.9983C482.964 59.8634 482.125 62.9374 482.125 66.2204C482.125 69.5034 482.964 72.5773 484.644 75.4424C486.383 78.2478 488.692 80.5161 491.571 82.2471C494.45 83.9185 497.538 84.7541 500.837 84.7541ZM533.242 45.9855H536.121V54.939C537.439 51.9545 539.688 49.5669 542.868 47.7762C546.046 45.9257 549.554 45.0006 553.393 45.0006C558.37 45.0006 562.299 46.5824 565.178 49.7459C568.115 52.8499 569.586 57.2071 569.586 62.818V86.2762H566.707V62.818C566.707 57.9831 565.506 54.2227 563.108 51.5366C560.77 48.8506 557.47 47.5076 553.213 47.5076C550.094 47.5076 547.215 48.2238 544.577 49.6564C541.997 51.0292 539.928 52.9394 538.37 55.3866C536.87 57.8339 536.121 60.6094 536.121 63.7134V86.2762H533.242V45.9855ZM600.016 87.261C596.178 87.261 592.609 86.306 589.311 84.3959C586.012 82.4859 583.403 79.9192 581.485 76.6959C579.565 73.4129 578.606 69.8913 578.606 66.1308C578.606 62.3703 579.565 58.8785 581.485 55.6552C583.403 52.3722 586.012 49.7757 589.311 47.8657C592.609 45.9557 596.178 45.0006 600.016 45.0006C603.914 45.0006 607.602 46.0452 611.081 48.1343C614.559 50.1638 616.988 52.8199 618.368 56.1029V45.9855H621.247V86.2762H618.368V76.2483C616.749 79.5908 614.23 82.2769 610.812 84.3064C607.452 86.2762 603.854 87.261 600.016 87.261ZM600.196 84.7541C603.494 84.7541 606.552 83.9185 609.372 82.2471C612.19 80.5161 614.41 78.2478 616.029 75.4424C617.707 72.5773 618.548 69.4734 618.548 66.1308C618.548 62.8478 617.707 59.7738 616.029 56.9087C614.349 54.0436 612.1 51.7754 609.282 50.1041C606.462 48.3731 603.404 47.5076 600.106 47.5076C596.807 47.5076 593.719 48.3731 590.841 50.1041C588.021 51.835 585.742 54.1331 584.004 56.9983C582.324 59.8634 581.485 62.9374 581.485 66.2204C581.485 69.5034 582.324 72.5773 584.004 75.4424C585.742 78.2478 588.052 80.5161 590.93 82.2471C593.809 83.9185 596.897 84.7541 600.196 84.7541ZM652.123 104.899C648.704 104.899 645.376 104.123 642.137 102.572C638.899 101.02 636.38 98.9901 634.581 96.4831V92.3645C636.139 95.2297 638.568 97.6173 641.867 99.5273C645.225 101.437 648.644 102.392 652.123 102.392C657.88 102.392 662.317 100.691 665.437 97.289C668.554 93.9464 670.114 89.022 670.114 82.5157V76.5169C668.495 79.7401 665.945 82.3664 662.468 84.3959C659.049 86.3657 655.451 87.3506 651.673 87.3506C647.834 87.3506 644.265 86.3955 640.968 84.4855C637.669 82.5754 635.06 80.0087 633.141 76.7855C631.221 73.5025 630.262 69.9808 630.262 66.2204C630.262 62.4599 631.221 58.968 633.141 55.7448C635.06 52.4618 637.669 49.8653 640.968 47.9552C644.265 46.0452 647.834 45.0901 651.673 45.0901C655.631 45.0901 659.288 46.075 662.648 48.0448C666.006 50.0145 668.495 52.6708 670.114 56.0134V45.9855H672.993V82.5157C672.993 89.8576 671.194 95.4087 667.596 99.1692C664.056 102.989 658.899 104.899 652.123 104.899ZM651.853 84.8436C655.15 84.8436 658.209 84.008 661.029 82.3366C663.847 80.6057 666.066 78.3374 667.686 75.532C669.364 72.6669 670.204 69.5629 670.204 66.2204C670.204 62.8778 669.364 59.8036 667.686 56.9983C666.066 54.1331 663.847 51.865 661.029 50.1936C658.209 48.4627 655.15 47.5971 651.853 47.5971C648.493 47.5971 645.376 48.4627 642.497 50.1936C639.677 51.865 637.399 54.1331 635.66 56.9983C633.98 59.8036 633.141 62.8778 633.141 66.2204C633.141 69.5629 633.98 72.6669 635.66 75.532C637.399 78.3374 639.677 80.6057 642.497 82.3366C645.376 84.008 648.493 84.8436 651.853 84.8436ZM704.047 84.8436C707.165 84.8436 710.133 84.0378 712.953 82.4262C715.771 80.8145 718.11 78.606 719.97 75.8006V80.3669C717.751 82.8141 715.322 84.6048 712.683 85.739C710.043 86.8134 707.045 87.3506 703.687 87.3506C699.968 87.3506 696.46 86.3657 693.162 84.3959C689.924 82.4262 687.315 79.7999 685.336 76.5169C683.415 73.2339 682.457 69.742 682.457 66.0413C682.457 62.042 683.415 58.4606 685.336 55.2971C687.254 52.0738 689.863 49.5669 693.162 47.7762C696.52 45.9855 700.238 45.0901 704.317 45.0901C710.554 45.0901 715.861 47.5373 720.24 52.432L691.993 80.1878C693.972 81.7994 695.89 82.9932 697.75 83.7692C699.608 84.4855 701.708 84.8436 704.047 84.8436ZM685.336 65.7727C685.336 70.7269 686.984 74.965 690.283 78.4866L716.642 52.432C714.662 50.701 712.742 49.4773 710.884 48.761C709.024 47.985 706.805 47.5971 704.227 47.5971C700.568 47.5971 697.3 48.4029 694.422 50.0145C691.602 51.5664 689.384 53.7153 687.765 56.4611C686.145 59.2068 685.336 62.3106 685.336 65.7727ZM450.751 191.626L436.537 158.767L422.144 191.626L392.547 123.311H395.695L422.234 184.374L435.008 155.185L421.154 123.311H424.213L436.807 152.231L449.491 123.311H452.28L438.246 155.544L450.931 184.642L477.559 123.311H480.707L450.751 191.626ZM497.235 191.895C493.156 191.895 489.468 190.91 486.17 188.94C482.871 186.91 480.292 184.255 478.434 180.972C476.574 177.629 475.645 174.017 475.645 170.138C475.645 166.317 476.574 162.766 478.434 159.483C480.352 156.2 482.932 153.604 486.17 151.694C489.468 149.724 493.127 148.739 497.145 148.739C501.103 148.739 504.702 149.724 507.94 151.694C511.238 153.604 513.817 156.2 515.677 159.483C517.535 162.766 518.466 166.317 518.466 170.138C518.466 174.138 517.566 177.808 515.767 181.151C513.968 184.434 511.449 187.06 508.21 189.03C505.031 190.939 501.373 191.895 497.235 191.895ZM497.235 189.388C500.654 189.388 503.771 188.522 506.591 186.791C509.409 185.061 511.598 182.762 513.158 179.897C514.777 176.972 515.587 173.779 515.587 170.317C515.587 166.915 514.777 163.752 513.158 160.826C511.539 157.901 509.319 155.573 506.501 153.842C503.681 152.111 500.564 151.246 497.145 151.246C493.727 151.246 490.578 152.141 487.699 153.932C484.88 155.663 482.631 157.991 480.953 160.916C479.333 163.841 478.524 167.004 478.524 170.406C478.524 173.809 479.333 176.972 480.953 179.897C482.631 182.762 484.88 185.061 487.699 186.791C490.578 188.522 493.756 189.388 497.235 189.388ZM526.565 150.172H529.444V159.483C530.643 156.558 532.382 154.26 534.662 152.589C537.001 150.918 539.639 150.082 542.578 150.082C544.436 150.082 546.325 150.47 548.245 151.246V154.559C546.505 153.245 544.557 152.589 542.398 152.589C540.239 152.589 538.139 153.245 536.101 154.559C534.122 155.872 532.503 157.633 531.243 159.841C530.043 162.05 529.444 164.408 529.444 166.915V190.462H526.565V150.172ZM555.38 123.49H558.259V164.139L574.272 150.172H577.96L559.428 166.288L582.638 190.462H578.77L558.259 168.974V190.462H555.38V123.49ZM599.009 191.447C596.13 191.447 593.58 190.97 591.362 190.015C589.143 189 587.553 187.716 586.594 186.165V181.419C587.733 183.986 589.293 185.896 591.272 187.149C593.251 188.343 595.77 188.94 598.829 188.94C601.767 188.94 604.137 188.045 605.936 186.254C607.735 184.403 608.635 182.046 608.635 179.181C608.635 176.734 608.124 174.854 607.105 173.54C606.085 172.168 604.436 170.794 602.157 169.422L598.739 167.452C596.279 165.959 594.421 164.795 593.162 163.96C591.961 163.065 591.002 162.08 590.283 161.005C589.563 159.871 589.203 158.558 589.203 157.066C589.203 154.678 590.042 152.768 591.722 151.335C593.4 149.903 595.59 149.187 598.289 149.187C601.587 149.187 604.346 149.933 606.565 151.425V155.365C604.706 152.917 602.036 151.694 598.559 151.694C596.639 151.694 595.08 152.171 593.881 153.126C592.681 154.081 592.082 155.305 592.082 156.797C592.082 158.11 592.442 159.274 593.162 160.289C593.881 161.244 594.871 162.139 596.13 162.975C597.448 163.81 599.608 165.064 602.607 166.735C605.666 168.466 607.915 170.257 609.354 172.108C610.794 173.898 611.513 176.255 611.513 179.181C611.513 182.881 610.283 185.867 607.825 188.134C605.425 190.343 602.486 191.447 599.009 191.447ZM620.478 150.172H623.357V160.02C624.976 156.797 627.495 154.201 630.913 152.231C634.332 150.201 637.93 149.187 641.709 149.187C645.606 149.187 649.175 150.142 652.414 152.052C655.711 153.962 658.32 156.529 660.24 159.752C662.159 162.975 663.119 166.496 663.119 170.317C663.119 174.138 662.159 177.659 660.24 180.882C658.32 184.105 655.711 186.672 652.414 188.582C649.175 190.492 645.606 191.447 641.709 191.447C638.05 191.447 634.512 190.462 631.093 188.492C627.734 186.523 625.156 183.926 623.357 180.703V208.369H620.478V150.172ZM641.888 188.94C645.186 188.94 648.245 188.105 651.064 186.433C653.883 184.703 656.102 182.433 657.721 179.628C659.4 176.763 660.24 173.659 660.24 170.317C660.24 167.033 659.4 163.96 657.721 161.095C656.042 158.23 653.793 155.961 650.974 154.29C648.155 152.559 645.096 151.694 641.799 151.694C638.499 151.694 635.411 152.559 632.533 154.29C629.713 156.021 627.434 158.319 625.696 161.184C624.016 164.049 623.177 167.123 623.177 170.406C623.177 173.69 624.016 176.763 625.696 179.628C627.434 182.433 629.744 184.703 632.623 186.433C635.501 188.105 638.589 188.94 641.888 188.94ZM691.206 191.447C687.367 191.447 683.798 190.492 680.501 188.582C677.202 186.672 674.593 184.105 672.674 180.882C670.754 177.598 669.796 174.077 669.796 170.317C669.796 166.556 670.754 163.065 672.674 159.841C674.593 156.558 677.202 153.962 680.501 152.052C683.798 150.142 687.367 149.187 691.206 149.187C695.104 149.187 698.792 150.231 702.271 152.32C705.748 154.35 708.177 157.006 709.558 160.289V150.172H712.436V190.462H709.558V180.434C707.938 183.776 705.42 186.462 702.001 188.492C698.642 190.462 695.043 191.447 691.206 191.447ZM691.386 188.94C694.683 188.94 697.742 188.105 700.562 186.433C703.38 184.703 705.599 182.433 707.219 179.628C708.897 176.763 709.738 173.659 709.738 170.317C709.738 167.033 708.897 163.96 707.219 161.095C705.539 158.23 703.29 155.961 700.472 154.29C697.652 152.559 694.593 151.694 691.296 151.694C687.997 151.694 684.909 152.559 682.03 154.29C679.21 156.021 676.932 158.319 675.193 161.184C673.513 164.049 672.674 167.123 672.674 170.406C672.674 173.69 673.513 176.763 675.193 179.628C676.932 182.433 679.241 184.703 682.12 186.433C684.999 188.105 688.087 188.94 691.386 188.94ZM742.862 191.626C738.963 191.626 735.365 190.702 732.067 188.851C728.829 187 726.249 184.463 724.331 181.24C722.41 178.017 721.452 174.375 721.452 170.317C721.452 166.556 722.41 163.094 724.331 159.931C726.249 156.708 728.858 154.141 732.157 152.231C735.515 150.321 739.203 149.366 743.222 149.366C746.58 149.366 749.459 149.903 751.858 150.977C754.256 152.052 756.595 153.723 758.875 155.991V160.826C756.896 157.901 754.676 155.693 752.218 154.201C749.819 152.649 746.821 151.873 743.222 151.873C739.923 151.873 736.804 152.738 733.866 154.469C730.988 156.141 728.678 158.409 726.939 161.274C725.199 164.139 724.331 167.212 724.331 170.496C724.331 174.077 725.17 177.301 726.85 180.166C728.528 182.971 730.777 185.18 733.596 186.791C736.475 188.343 739.563 189.119 742.862 189.119C749.578 189.119 754.917 186.104 758.875 180.076V184.911C756.716 187.179 754.317 188.88 751.678 190.015C749.099 191.089 746.16 191.626 742.862 191.626ZM787.417 189.03C790.536 189.03 793.505 188.224 796.323 186.612C799.143 185.001 801.482 182.792 803.34 179.987V184.553C801.122 187 798.693 188.79 796.053 189.925C793.415 190.999 790.417 191.537 787.057 191.537C783.339 191.537 779.831 190.552 776.532 188.582C773.293 186.612 770.684 183.986 768.705 180.703C766.787 177.419 765.827 173.928 765.827 170.227C765.827 166.228 766.787 162.647 768.705 159.483C770.625 156.26 773.234 153.753 776.532 151.962C779.891 150.172 783.609 149.276 787.687 149.276C793.925 149.276 799.233 151.723 803.609 156.618L775.362 184.374C777.341 185.985 779.262 187.179 781.12 187.955C782.979 188.672 785.078 189.03 787.417 189.03ZM768.705 169.959C768.705 174.912 770.356 179.152 773.653 182.673L800.011 156.618C798.032 154.887 796.113 153.663 794.254 152.947C792.396 152.171 790.176 151.783 787.597 151.783C783.939 151.783 780.67 152.589 777.791 154.201C774.973 155.752 772.753 157.901 771.134 160.647C769.515 163.393 768.705 166.496 768.705 169.959Z"></path></mask><path d="M468.833 19.125V86.2762H465.864V23.4227L434.018 87.5297L402.352 22.6169V86.2762H399.384V19.125H403.612L434.018 81.4413L464.694 19.125H468.833ZM500.657 87.261C496.818 87.261 493.249 86.306 489.952 84.3959C486.653 82.4859 484.044 79.9192 482.125 76.6959C480.205 73.4129 479.247 69.8913 479.247 66.1308C479.247 62.3703 480.205 58.8785 482.125 55.6552C484.044 52.3722 486.653 49.7757 489.952 47.8657C493.249 45.9557 496.818 45.0006 500.657 45.0006C504.555 45.0006 508.243 46.0452 511.722 48.1343C515.199 50.1638 517.628 52.8199 519.009 56.1029V45.9855H521.887V86.2762H519.009V76.2483C517.389 79.5908 514.871 82.2769 511.452 84.3064C508.092 86.2762 504.494 87.261 500.657 87.261ZM500.837 84.7541C504.134 84.7541 507.193 83.9185 510.013 82.2471C512.831 80.5161 515.05 78.2478 516.67 75.4424C518.348 72.5773 519.189 69.4734 519.189 66.1308C519.189 62.8478 518.348 59.7738 516.67 56.9087C514.99 54.0436 512.741 51.7754 509.923 50.1041C507.103 48.3731 504.044 47.5076 500.747 47.5076C497.448 47.5076 494.36 48.3731 491.481 50.1041C488.661 51.835 486.383 54.1331 484.644 56.9983C482.964 59.8634 482.125 62.9374 482.125 66.2204C482.125 69.5034 482.964 72.5773 484.644 75.4424C486.383 78.2478 488.692 80.5161 491.571 82.2471C494.45 83.9185 497.538 84.7541 500.837 84.7541ZM533.242 45.9855H536.121V54.939C537.439 51.9545 539.688 49.5669 542.868 47.7762C546.046 45.9257 549.554 45.0006 553.393 45.0006C558.37 45.0006 562.299 46.5824 565.178 49.7459C568.115 52.8499 569.586 57.2071 569.586 62.818V86.2762H566.707V62.818C566.707 57.9831 565.506 54.2227 563.108 51.5366C560.77 48.8506 557.47 47.5076 553.213 47.5076C550.094 47.5076 547.215 48.2238 544.577 49.6564C541.997 51.0292 539.928 52.9394 538.37 55.3866C536.87 57.8339 536.121 60.6094 536.121 63.7134V86.2762H533.242V45.9855ZM600.016 87.261C596.178 87.261 592.609 86.306 589.311 84.3959C586.012 82.4859 583.403 79.9192 581.485 76.6959C579.565 73.4129 578.606 69.8913 578.606 66.1308C578.606 62.3703 579.565 58.8785 581.485 55.6552C583.403 52.3722 586.012 49.7757 589.311 47.8657C592.609 45.9557 596.178 45.0006 600.016 45.0006C603.914 45.0006 607.602 46.0452 611.081 48.1343C614.559 50.1638 616.988 52.8199 618.368 56.1029V45.9855H621.247V86.2762H618.368V76.2483C616.749 79.5908 614.23 82.2769 610.812 84.3064C607.452 86.2762 603.854 87.261 600.016 87.261ZM600.196 84.7541C603.494 84.7541 606.552 83.9185 609.372 82.2471C612.19 80.5161 614.41 78.2478 616.029 75.4424C617.707 72.5773 618.548 69.4734 618.548 66.1308C618.548 62.8478 617.707 59.7738 616.029 56.9087C614.349 54.0436 612.1 51.7754 609.282 50.1041C606.462 48.3731 603.404 47.5076 600.106 47.5076C596.807 47.5076 593.719 48.3731 590.841 50.1041C588.021 51.835 585.742 54.1331 584.004 56.9983C582.324 59.8634 581.485 62.9374 581.485 66.2204C581.485 69.5034 582.324 72.5773 584.004 75.4424C585.742 78.2478 588.052 80.5161 590.93 82.2471C593.809 83.9185 596.897 84.7541 600.196 84.7541ZM652.123 104.899C648.704 104.899 645.376 104.123 642.137 102.572C638.899 101.02 636.38 98.9901 634.581 96.4831V92.3645C636.139 95.2297 638.568 97.6173 641.867 99.5273C645.225 101.437 648.644 102.392 652.123 102.392C657.88 102.392 662.317 100.691 665.437 97.289C668.554 93.9464 670.114 89.022 670.114 82.5157V76.5169C668.495 79.7401 665.945 82.3664 662.468 84.3959C659.049 86.3657 655.451 87.3506 651.673 87.3506C647.834 87.3506 644.265 86.3955 640.968 84.4855C637.669 82.5754 635.06 80.0087 633.141 76.7855C631.221 73.5025 630.262 69.9808 630.262 66.2204C630.262 62.4599 631.221 58.968 633.141 55.7448C635.06 52.4618 637.669 49.8653 640.968 47.9552C644.265 46.0452 647.834 45.0901 651.673 45.0901C655.631 45.0901 659.288 46.075 662.648 48.0448C666.006 50.0145 668.495 52.6708 670.114 56.0134V45.9855H672.993V82.5157C672.993 89.8576 671.194 95.4087 667.596 99.1692C664.056 102.989 658.899 104.899 652.123 104.899ZM651.853 84.8436C655.15 84.8436 658.209 84.008 661.029 82.3366C663.847 80.6057 666.066 78.3374 667.686 75.532C669.364 72.6669 670.204 69.5629 670.204 66.2204C670.204 62.8778 669.364 59.8036 667.686 56.9983C666.066 54.1331 663.847 51.865 661.029 50.1936C658.209 48.4627 655.15 47.5971 651.853 47.5971C648.493 47.5971 645.376 48.4627 642.497 50.1936C639.677 51.865 637.399 54.1331 635.66 56.9983C633.98 59.8036 633.141 62.8778 633.141 66.2204C633.141 69.5629 633.98 72.6669 635.66 75.532C637.399 78.3374 639.677 80.6057 642.497 82.3366C645.376 84.008 648.493 84.8436 651.853 84.8436ZM704.047 84.8436C707.165 84.8436 710.133 84.0378 712.953 82.4262C715.771 80.8145 718.11 78.606 719.97 75.8006V80.3669C717.751 82.8141 715.322 84.6048 712.683 85.739C710.043 86.8134 707.045 87.3506 703.687 87.3506C699.968 87.3506 696.46 86.3657 693.162 84.3959C689.924 82.4262 687.315 79.7999 685.336 76.5169C683.415 73.2339 682.457 69.742 682.457 66.0413C682.457 62.042 683.415 58.4606 685.336 55.2971C687.254 52.0738 689.863 49.5669 693.162 47.7762C696.52 45.9855 700.238 45.0901 704.317 45.0901C710.554 45.0901 715.861 47.5373 720.24 52.432L691.993 80.1878C693.972 81.7994 695.89 82.9932 697.75 83.7692C699.608 84.4855 701.708 84.8436 704.047 84.8436ZM685.336 65.7727C685.336 70.7269 686.984 74.965 690.283 78.4866L716.642 52.432C714.662 50.701 712.742 49.4773 710.884 48.761C709.024 47.985 706.805 47.5971 704.227 47.5971C700.568 47.5971 697.3 48.4029 694.422 50.0145C691.602 51.5664 689.384 53.7153 687.765 56.4611C686.145 59.2068 685.336 62.3106 685.336 65.7727ZM450.751 191.626L436.537 158.767L422.144 191.626L392.547 123.311H395.695L422.234 184.374L435.008 155.185L421.154 123.311H424.213L436.807 152.231L449.491 123.311H452.28L438.246 155.544L450.931 184.642L477.559 123.311H480.707L450.751 191.626ZM497.235 191.895C493.156 191.895 489.468 190.91 486.17 188.94C482.871 186.91 480.292 184.255 478.434 180.972C476.574 177.629 475.645 174.017 475.645 170.138C475.645 166.317 476.574 162.766 478.434 159.483C480.352 156.2 482.932 153.604 486.17 151.694C489.468 149.724 493.127 148.739 497.145 148.739C501.103 148.739 504.702 149.724 507.94 151.694C511.238 153.604 513.817 156.2 515.677 159.483C517.535 162.766 518.466 166.317 518.466 170.138C518.466 174.138 517.566 177.808 515.767 181.151C513.968 184.434 511.449 187.06 508.21 189.03C505.031 190.939 501.373 191.895 497.235 191.895ZM497.235 189.388C500.654 189.388 503.771 188.522 506.591 186.791C509.409 185.061 511.598 182.762 513.158 179.897C514.777 176.972 515.587 173.779 515.587 170.317C515.587 166.915 514.777 163.752 513.158 160.826C511.539 157.901 509.319 155.573 506.501 153.842C503.681 152.111 500.564 151.246 497.145 151.246C493.727 151.246 490.578 152.141 487.699 153.932C484.88 155.663 482.631 157.991 480.953 160.916C479.333 163.841 478.524 167.004 478.524 170.406C478.524 173.809 479.333 176.972 480.953 179.897C482.631 182.762 484.88 185.061 487.699 186.791C490.578 188.522 493.756 189.388 497.235 189.388ZM526.565 150.172H529.444V159.483C530.643 156.558 532.382 154.26 534.662 152.589C537.001 150.918 539.639 150.082 542.578 150.082C544.436 150.082 546.325 150.47 548.245 151.246V154.559C546.505 153.245 544.557 152.589 542.398 152.589C540.239 152.589 538.139 153.245 536.101 154.559C534.122 155.872 532.503 157.633 531.243 159.841C530.043 162.05 529.444 164.408 529.444 166.915V190.462H526.565V150.172ZM555.38 123.49H558.259V164.139L574.272 150.172H577.96L559.428 166.288L582.638 190.462H578.77L558.259 168.974V190.462H555.38V123.49ZM599.009 191.447C596.13 191.447 593.58 190.97 591.362 190.015C589.143 189 587.553 187.716 586.594 186.165V181.419C587.733 183.986 589.293 185.896 591.272 187.149C593.251 188.343 595.77 188.94 598.829 188.94C601.767 188.94 604.137 188.045 605.936 186.254C607.735 184.403 608.635 182.046 608.635 179.181C608.635 176.734 608.124 174.854 607.105 173.54C606.085 172.168 604.436 170.794 602.157 169.422L598.739 167.452C596.279 165.959 594.421 164.795 593.162 163.96C591.961 163.065 591.002 162.08 590.283 161.005C589.563 159.871 589.203 158.558 589.203 157.066C589.203 154.678 590.042 152.768 591.722 151.335C593.4 149.903 595.59 149.187 598.289 149.187C601.587 149.187 604.346 149.933 606.565 151.425V155.365C604.706 152.917 602.036 151.694 598.559 151.694C596.639 151.694 595.08 152.171 593.881 153.126C592.681 154.081 592.082 155.305 592.082 156.797C592.082 158.11 592.442 159.274 593.162 160.289C593.881 161.244 594.871 162.139 596.13 162.975C597.448 163.81 599.608 165.064 602.607 166.735C605.666 168.466 607.915 170.257 609.354 172.108C610.794 173.898 611.513 176.255 611.513 179.181C611.513 182.881 610.283 185.867 607.825 188.134C605.425 190.343 602.486 191.447 599.009 191.447ZM620.478 150.172H623.357V160.02C624.976 156.797 627.495 154.201 630.913 152.231C634.332 150.201 637.93 149.187 641.709 149.187C645.606 149.187 649.175 150.142 652.414 152.052C655.711 153.962 658.32 156.529 660.24 159.752C662.159 162.975 663.119 166.496 663.119 170.317C663.119 174.138 662.159 177.659 660.24 180.882C658.32 184.105 655.711 186.672 652.414 188.582C649.175 190.492 645.606 191.447 641.709 191.447C638.05 191.447 634.512 190.462 631.093 188.492C627.734 186.523 625.156 183.926 623.357 180.703V208.369H620.478V150.172ZM641.888 188.94C645.186 188.94 648.245 188.105 651.064 186.433C653.883 184.703 656.102 182.433 657.721 179.628C659.4 176.763 660.24 173.659 660.24 170.317C660.24 167.033 659.4 163.96 657.721 161.095C656.042 158.23 653.793 155.961 650.974 154.29C648.155 152.559 645.096 151.694 641.799 151.694C638.499 151.694 635.411 152.559 632.533 154.29C629.713 156.021 627.434 158.319 625.696 161.184C624.016 164.049 623.177 167.123 623.177 170.406C623.177 173.69 624.016 176.763 625.696 179.628C627.434 182.433 629.744 184.703 632.623 186.433C635.501 188.105 638.589 188.94 641.888 188.94ZM691.206 191.447C687.367 191.447 683.798 190.492 680.501 188.582C677.202 186.672 674.593 184.105 672.674 180.882C670.754 177.598 669.796 174.077 669.796 170.317C669.796 166.556 670.754 163.065 672.674 159.841C674.593 156.558 677.202 153.962 680.501 152.052C683.798 150.142 687.367 149.187 691.206 149.187C695.104 149.187 698.792 150.231 702.271 152.32C705.748 154.35 708.177 157.006 709.558 160.289V150.172H712.436V190.462H709.558V180.434C707.938 183.776 705.42 186.462 702.001 188.492C698.642 190.462 695.043 191.447 691.206 191.447ZM691.386 188.94C694.683 188.94 697.742 188.105 700.562 186.433C703.38 184.703 705.599 182.433 707.219 179.628C708.897 176.763 709.738 173.659 709.738 170.317C709.738 167.033 708.897 163.96 707.219 161.095C705.539 158.23 703.29 155.961 700.472 154.29C697.652 152.559 694.593 151.694 691.296 151.694C687.997 151.694 684.909 152.559 682.03 154.29C679.21 156.021 676.932 158.319 675.193 161.184C673.513 164.049 672.674 167.123 672.674 170.406C672.674 173.69 673.513 176.763 675.193 179.628C676.932 182.433 679.241 184.703 682.12 186.433C684.999 188.105 688.087 188.94 691.386 188.94ZM742.862 191.626C738.963 191.626 735.365 190.702 732.067 188.851C728.829 187 726.249 184.463 724.331 181.24C722.41 178.017 721.452 174.375 721.452 170.317C721.452 166.556 722.41 163.094 724.331 159.931C726.249 156.708 728.858 154.141 732.157 152.231C735.515 150.321 739.203 149.366 743.222 149.366C746.58 149.366 749.459 149.903 751.858 150.977C754.256 152.052 756.595 153.723 758.875 155.991V160.826C756.896 157.901 754.676 155.693 752.218 154.201C749.819 152.649 746.821 151.873 743.222 151.873C739.923 151.873 736.804 152.738 733.866 154.469C730.988 156.141 728.678 158.409 726.939 161.274C725.199 164.139 724.331 167.212 724.331 170.496C724.331 174.077 725.17 177.301 726.85 180.166C728.528 182.971 730.777 185.18 733.596 186.791C736.475 188.343 739.563 189.119 742.862 189.119C749.578 189.119 754.917 186.104 758.875 180.076V184.911C756.716 187.179 754.317 188.88 751.678 190.015C749.099 191.089 746.16 191.626 742.862 191.626ZM787.417 189.03C790.536 189.03 793.505 188.224 796.323 186.612C799.143 185.001 801.482 182.792 803.34 179.987V184.553C801.122 187 798.693 188.79 796.053 189.925C793.415 190.999 790.417 191.537 787.057 191.537C783.339 191.537 779.831 190.552 776.532 188.582C773.293 186.612 770.684 183.986 768.705 180.703C766.787 177.419 765.827 173.928 765.827 170.227C765.827 166.228 766.787 162.647 768.705 159.483C770.625 156.26 773.234 153.753 776.532 151.962C779.891 150.172 783.609 149.276 787.687 149.276C793.925 149.276 799.233 151.723 803.609 156.618L775.362 184.374C777.341 185.985 779.262 187.179 781.12 187.955C782.979 188.672 785.078 189.03 787.417 189.03ZM768.705 169.959C768.705 174.912 770.356 179.152 773.653 182.673L800.011 156.618C798.032 154.887 796.113 153.663 794.254 152.947C792.396 152.171 790.176 151.783 787.597 151.783C783.939 151.783 780.67 152.589 777.791 154.201C774.973 155.752 772.753 157.901 771.134 160.647C769.515 163.393 768.705 166.496 768.705 169.959Z" fill="white"></path><path d="M468.833 19.125V86.2762H465.864V23.4227L434.018 87.5297L402.352 22.6169V86.2762H399.384V19.125H403.612L434.018 81.4413L464.694 19.125H468.833ZM500.657 87.261C496.818 87.261 493.249 86.306 489.952 84.3959C486.653 82.4859 484.044 79.9192 482.125 76.6959C480.205 73.4129 479.247 69.8913 479.247 66.1308C479.247 62.3703 480.205 58.8785 482.125 55.6552C484.044 52.3722 486.653 49.7757 489.952 47.8657C493.249 45.9557 496.818 45.0006 500.657 45.0006C504.555 45.0006 508.243 46.0452 511.722 48.1343C515.199 50.1638 517.628 52.8199 519.009 56.1029V45.9855H521.887V86.2762H519.009V76.2483C517.389 79.5908 514.871 82.2769 511.452 84.3064C508.092 86.2762 504.494 87.261 500.657 87.261ZM500.837 84.7541C504.134 84.7541 507.193 83.9185 510.013 82.2471C512.831 80.5161 515.05 78.2478 516.67 75.4424C518.348 72.5773 519.189 69.4734 519.189 66.1308C519.189 62.8478 518.348 59.7738 516.67 56.9087C514.99 54.0436 512.741 51.7754 509.923 50.1041C507.103 48.3731 504.044 47.5076 500.747 47.5076C497.448 47.5076 494.36 48.3731 491.481 50.1041C488.661 51.835 486.383 54.1331 484.644 56.9983C482.964 59.8634 482.125 62.9374 482.125 66.2204C482.125 69.5034 482.964 72.5773 484.644 75.4424C486.383 78.2478 488.692 80.5161 491.571 82.2471C494.45 83.9185 497.538 84.7541 500.837 84.7541ZM533.242 45.9855H536.121V54.939C537.439 51.9545 539.688 49.5669 542.868 47.7762C546.046 45.9257 549.554 45.0006 553.393 45.0006C558.37 45.0006 562.299 46.5824 565.178 49.7459C568.115 52.8499 569.586 57.2071 569.586 62.818V86.2762H566.707V62.818C566.707 57.9831 565.506 54.2227 563.108 51.5366C560.77 48.8506 557.47 47.5076 553.213 47.5076C550.094 47.5076 547.215 48.2238 544.577 49.6564C541.997 51.0292 539.928 52.9394 538.37 55.3866C536.87 57.8339 536.121 60.6094 536.121 63.7134V86.2762H533.242V45.9855ZM600.016 87.261C596.178 87.261 592.609 86.306 589.311 84.3959C586.012 82.4859 583.403 79.9192 581.485 76.6959C579.565 73.4129 578.606 69.8913 578.606 66.1308C578.606 62.3703 579.565 58.8785 581.485 55.6552C583.403 52.3722 586.012 49.7757 589.311 47.8657C592.609 45.9557 596.178 45.0006 600.016 45.0006C603.914 45.0006 607.602 46.0452 611.081 48.1343C614.559 50.1638 616.988 52.8199 618.368 56.1029V45.9855H621.247V86.2762H618.368V76.2483C616.749 79.5908 614.23 82.2769 610.812 84.3064C607.452 86.2762 603.854 87.261 600.016 87.261ZM600.196 84.7541C603.494 84.7541 606.552 83.9185 609.372 82.2471C612.19 80.5161 614.41 78.2478 616.029 75.4424C617.707 72.5773 618.548 69.4734 618.548 66.1308C618.548 62.8478 617.707 59.7738 616.029 56.9087C614.349 54.0436 612.1 51.7754 609.282 50.1041C606.462 48.3731 603.404 47.5076 600.106 47.5076C596.807 47.5076 593.719 48.3731 590.841 50.1041C588.021 51.835 585.742 54.1331 584.004 56.9983C582.324 59.8634 581.485 62.9374 581.485 66.2204C581.485 69.5034 582.324 72.5773 584.004 75.4424C585.742 78.2478 588.052 80.5161 590.93 82.2471C593.809 83.9185 596.897 84.7541 600.196 84.7541ZM652.123 104.899C648.704 104.899 645.376 104.123 642.137 102.572C638.899 101.02 636.38 98.9901 634.581 96.4831V92.3645C636.139 95.2297 638.568 97.6173 641.867 99.5273C645.225 101.437 648.644 102.392 652.123 102.392C657.88 102.392 662.317 100.691 665.437 97.289C668.554 93.9464 670.114 89.022 670.114 82.5157V76.5169C668.495 79.7401 665.945 82.3664 662.468 84.3959C659.049 86.3657 655.451 87.3506 651.673 87.3506C647.834 87.3506 644.265 86.3955 640.968 84.4855C637.669 82.5754 635.06 80.0087 633.141 76.7855C631.221 73.5025 630.262 69.9808 630.262 66.2204C630.262 62.4599 631.221 58.968 633.141 55.7448C635.06 52.4618 637.669 49.8653 640.968 47.9552C644.265 46.0452 647.834 45.0901 651.673 45.0901C655.631 45.0901 659.288 46.075 662.648 48.0448C666.006 50.0145 668.495 52.6708 670.114 56.0134V45.9855H672.993V82.5157C672.993 89.8576 671.194 95.4087 667.596 99.1692C664.056 102.989 658.899 104.899 652.123 104.899ZM651.853 84.8436C655.15 84.8436 658.209 84.008 661.029 82.3366C663.847 80.6057 666.066 78.3374 667.686 75.532C669.364 72.6669 670.204 69.5629 670.204 66.2204C670.204 62.8778 669.364 59.8036 667.686 56.9983C666.066 54.1331 663.847 51.865 661.029 50.1936C658.209 48.4627 655.15 47.5971 651.853 47.5971C648.493 47.5971 645.376 48.4627 642.497 50.1936C639.677 51.865 637.399 54.1331 635.66 56.9983C633.98 59.8036 633.141 62.8778 633.141 66.2204C633.141 69.5629 633.98 72.6669 635.66 75.532C637.399 78.3374 639.677 80.6057 642.497 82.3366C645.376 84.008 648.493 84.8436 651.853 84.8436ZM704.047 84.8436C707.165 84.8436 710.133 84.0378 712.953 82.4262C715.771 80.8145 718.11 78.606 719.97 75.8006V80.3669C717.751 82.8141 715.322 84.6048 712.683 85.739C710.043 86.8134 707.045 87.3506 703.687 87.3506C699.968 87.3506 696.46 86.3657 693.162 84.3959C689.924 82.4262 687.315 79.7999 685.336 76.5169C683.415 73.2339 682.457 69.742 682.457 66.0413C682.457 62.042 683.415 58.4606 685.336 55.2971C687.254 52.0738 689.863 49.5669 693.162 47.7762C696.52 45.9855 700.238 45.0901 704.317 45.0901C710.554 45.0901 715.861 47.5373 720.24 52.432L691.993 80.1878C693.972 81.7994 695.89 82.9932 697.75 83.7692C699.608 84.4855 701.708 84.8436 704.047 84.8436ZM685.336 65.7727C685.336 70.7269 686.984 74.965 690.283 78.4866L716.642 52.432C714.662 50.701 712.742 49.4773 710.884 48.761C709.024 47.985 706.805 47.5971 704.227 47.5971C700.568 47.5971 697.3 48.4029 694.422 50.0145C691.602 51.5664 689.384 53.7153 687.765 56.4611C686.145 59.2068 685.336 62.3106 685.336 65.7727ZM450.751 191.626L436.537 158.767L422.144 191.626L392.547 123.311H395.695L422.234 184.374L435.008 155.185L421.154 123.311H424.213L436.807 152.231L449.491 123.311H452.28L438.246 155.544L450.931 184.642L477.559 123.311H480.707L450.751 191.626ZM497.235 191.895C493.156 191.895 489.468 190.91 486.17 188.94C482.871 186.91 480.292 184.255 478.434 180.972C476.574 177.629 475.645 174.017 475.645 170.138C475.645 166.317 476.574 162.766 478.434 159.483C480.352 156.2 482.932 153.604 486.17 151.694C489.468 149.724 493.127 148.739 497.145 148.739C501.103 148.739 504.702 149.724 507.94 151.694C511.238 153.604 513.817 156.2 515.677 159.483C517.535 162.766 518.466 166.317 518.466 170.138C518.466 174.138 517.566 177.808 515.767 181.151C513.968 184.434 511.449 187.06 508.21 189.03C505.031 190.939 501.373 191.895 497.235 191.895ZM497.235 189.388C500.654 189.388 503.771 188.522 506.591 186.791C509.409 185.061 511.598 182.762 513.158 179.897C514.777 176.972 515.587 173.779 515.587 170.317C515.587 166.915 514.777 163.752 513.158 160.826C511.539 157.901 509.319 155.573 506.501 153.842C503.681 152.111 500.564 151.246 497.145 151.246C493.727 151.246 490.578 152.141 487.699 153.932C484.88 155.663 482.631 157.991 480.953 160.916C479.333 163.841 478.524 167.004 478.524 170.406C478.524 173.809 479.333 176.972 480.953 179.897C482.631 182.762 484.88 185.061 487.699 186.791C490.578 188.522 493.756 189.388 497.235 189.388ZM526.565 150.172H529.444V159.483C530.643 156.558 532.382 154.26 534.662 152.589C537.001 150.918 539.639 150.082 542.578 150.082C544.436 150.082 546.325 150.47 548.245 151.246V154.559C546.505 153.245 544.557 152.589 542.398 152.589C540.239 152.589 538.139 153.245 536.101 154.559C534.122 155.872 532.503 157.633 531.243 159.841C530.043 162.05 529.444 164.408 529.444 166.915V190.462H526.565V150.172ZM555.38 123.49H558.259V164.139L574.272 150.172H577.96L559.428 166.288L582.638 190.462H578.77L558.259 168.974V190.462H555.38V123.49ZM599.009 191.447C596.13 191.447 593.58 190.97 591.362 190.015C589.143 189 587.553 187.716 586.594 186.165V181.419C587.733 183.986 589.293 185.896 591.272 187.149C593.251 188.343 595.77 188.94 598.829 188.94C601.767 188.94 604.137 188.045 605.936 186.254C607.735 184.403 608.635 182.046 608.635 179.181C608.635 176.734 608.124 174.854 607.105 173.54C606.085 172.168 604.436 170.794 602.157 169.422L598.739 167.452C596.279 165.959 594.421 164.795 593.162 163.96C591.961 163.065 591.002 162.08 590.283 161.005C589.563 159.871 589.203 158.558 589.203 157.066C589.203 154.678 590.042 152.768 591.722 151.335C593.4 149.903 595.59 149.187 598.289 149.187C601.587 149.187 604.346 149.933 606.565 151.425V155.365C604.706 152.917 602.036 151.694 598.559 151.694C596.639 151.694 595.08 152.171 593.881 153.126C592.681 154.081 592.082 155.305 592.082 156.797C592.082 158.11 592.442 159.274 593.162 160.289C593.881 161.244 594.871 162.139 596.13 162.975C597.448 163.81 599.608 165.064 602.607 166.735C605.666 168.466 607.915 170.257 609.354 172.108C610.794 173.898 611.513 176.255 611.513 179.181C611.513 182.881 610.283 185.867 607.825 188.134C605.425 190.343 602.486 191.447 599.009 191.447ZM620.478 150.172H623.357V160.02C624.976 156.797 627.495 154.201 630.913 152.231C634.332 150.201 637.93 149.187 641.709 149.187C645.606 149.187 649.175 150.142 652.414 152.052C655.711 153.962 658.32 156.529 660.24 159.752C662.159 162.975 663.119 166.496 663.119 170.317C663.119 174.138 662.159 177.659 660.24 180.882C658.32 184.105 655.711 186.672 652.414 188.582C649.175 190.492 645.606 191.447 641.709 191.447C638.05 191.447 634.512 190.462 631.093 188.492C627.734 186.523 625.156 183.926 623.357 180.703V208.369H620.478V150.172ZM641.888 188.94C645.186 188.94 648.245 188.105 651.064 186.433C653.883 184.703 656.102 182.433 657.721 179.628C659.4 176.763 660.24 173.659 660.24 170.317C660.24 167.033 659.4 163.96 657.721 161.095C656.042 158.23 653.793 155.961 650.974 154.29C648.155 152.559 645.096 151.694 641.799 151.694C638.499 151.694 635.411 152.559 632.533 154.29C629.713 156.021 627.434 158.319 625.696 161.184C624.016 164.049 623.177 167.123 623.177 170.406C623.177 173.69 624.016 176.763 625.696 179.628C627.434 182.433 629.744 184.703 632.623 186.433C635.501 188.105 638.589 188.94 641.888 188.94ZM691.206 191.447C687.367 191.447 683.798 190.492 680.501 188.582C677.202 186.672 674.593 184.105 672.674 180.882C670.754 177.598 669.796 174.077 669.796 170.317C669.796 166.556 670.754 163.065 672.674 159.841C674.593 156.558 677.202 153.962 680.501 152.052C683.798 150.142 687.367 149.187 691.206 149.187C695.104 149.187 698.792 150.231 702.271 152.32C705.748 154.35 708.177 157.006 709.558 160.289V150.172H712.436V190.462H709.558V180.434C707.938 183.776 705.42 186.462 702.001 188.492C698.642 190.462 695.043 191.447 691.206 191.447ZM691.386 188.94C694.683 188.94 697.742 188.105 700.562 186.433C703.38 184.703 705.599 182.433 707.219 179.628C708.897 176.763 709.738 173.659 709.738 170.317C709.738 167.033 708.897 163.96 707.219 161.095C705.539 158.23 703.29 155.961 700.472 154.29C697.652 152.559 694.593 151.694 691.296 151.694C687.997 151.694 684.909 152.559 682.03 154.29C679.21 156.021 676.932 158.319 675.193 161.184C673.513 164.049 672.674 167.123 672.674 170.406C672.674 173.69 673.513 176.763 675.193 179.628C676.932 182.433 679.241 184.703 682.12 186.433C684.999 188.105 688.087 188.94 691.386 188.94ZM742.862 191.626C738.963 191.626 735.365 190.702 732.067 188.851C728.829 187 726.249 184.463 724.331 181.24C722.41 178.017 721.452 174.375 721.452 170.317C721.452 166.556 722.41 163.094 724.331 159.931C726.249 156.708 728.858 154.141 732.157 152.231C735.515 150.321 739.203 149.366 743.222 149.366C746.58 149.366 749.459 149.903 751.858 150.977C754.256 152.052 756.595 153.723 758.875 155.991V160.826C756.896 157.901 754.676 155.693 752.218 154.201C749.819 152.649 746.821 151.873 743.222 151.873C739.923 151.873 736.804 152.738 733.866 154.469C730.988 156.141 728.678 158.409 726.939 161.274C725.199 164.139 724.331 167.212 724.331 170.496C724.331 174.077 725.17 177.301 726.85 180.166C728.528 182.971 730.777 185.18 733.596 186.791C736.475 188.343 739.563 189.119 742.862 189.119C749.578 189.119 754.917 186.104 758.875 180.076V184.911C756.716 187.179 754.317 188.88 751.678 190.015C749.099 191.089 746.16 191.626 742.862 191.626ZM787.417 189.03C790.536 189.03 793.505 188.224 796.323 186.612C799.143 185.001 801.482 182.792 803.34 179.987V184.553C801.122 187 798.693 188.79 796.053 189.925C793.415 190.999 790.417 191.537 787.057 191.537C783.339 191.537 779.831 190.552 776.532 188.582C773.293 186.612 770.684 183.986 768.705 180.703C766.787 177.419 765.827 173.928 765.827 170.227C765.827 166.228 766.787 162.647 768.705 159.483C770.625 156.26 773.234 153.753 776.532 151.962C779.891 150.172 783.609 149.276 787.687 149.276C793.925 149.276 799.233 151.723 803.609 156.618L775.362 184.374C777.341 185.985 779.262 187.179 781.12 187.955C782.979 188.672 785.078 189.03 787.417 189.03ZM768.705 169.959C768.705 174.912 770.356 179.152 773.653 182.673L800.011 156.618C798.032 154.887 796.113 153.663 794.254 152.947C792.396 152.171 790.176 151.783 787.597 151.783C783.939 151.783 780.67 152.589 777.791 154.201C774.973 155.752 772.753 157.901 771.134 160.647C769.515 163.393 768.705 166.496 768.705 169.959Z" stroke="white" stroke-width="2" mask="url(#path-1-outside-1_2142_5191)"></path><path d="M328.409 9.44895C339.26 6.60365 357.479 9.52235 357.479 9.52235L306.179 203.035L278.969 203.025C278.969 203.025 304.588 15.6952 328.409 9.44895Z" fill="white"></path><path d="M176.407 8.14063H209.578L265.364 203.222C265.364 203.222 247.762 203.222 236.482 203.222C221.639 203.222 189.977 47.3917 189.977 47.3917L140.221 203.222H108.558L55.4098 55.9736L27.1395 203.222H0L39.1545 8.14063C39.1545 8.14063 56.9876 8.14776 68.4142 8.14063C94.9884 8.12405 125.379 170.35 125.379 170.35L176.407 8.14063Z" fill="white"></path></svg>